<svg width="218" height="452" viewBox="0 0 218 452" fill="none" xmlns="http://www.w3.org/2000/svg">
<path fill-rule="evenodd" clip-rule="evenodd" d="M82.9088 55.5098C82.9088 55.5098 85.9543 54.3319 89.0703 54.1818C92.1879 54.0316 95.9086 54.06 95.9993 54.11C96.0867 54.1601 91.427 54.5989 91.1078 54.8992C90.7903 55.1995 92.9304 54.5054 100.867 54.4704C105.767 54.4504 107.681 53.9582 108.436 54.2418C109.016 54.4587 108.567 55.7567 108.554 55.8335C108.52 56.0337 105.243 55.1978 101.806 55.2312C100.326 55.2445 89.208 55.8985 88.7377 56.5158C90.8088 56.2856 89.8261 56.7861 90.2276 56.7677C93.006 56.6393 97.2441 56.0437 100.659 55.9302C103.552 55.8335 109.426 56.4424 108.875 56.8612C108.71 56.9863 108.616 57.1331 108.574 57.2899C108.3 57.2199 107.597 56.9863 107.161 56.9863C106.726 56.9863 108.095 57.1832 108.556 57.7571C108.687 58.5913 109.486 59.4922 108.344 59.3954C106.669 59.3871 105.581 58.7581 104.554 58.7581C103.101 58.7581 102.912 58.7581 102.149 58.5679C101.39 58.3777 100.024 58.1742 100.693 58.1942C101.274 58.1942 102.68 57.9206 104.289 58.0674C105.45 58.1742 106.706 58.2442 106.775 58.049C106.846 57.8422 106.691 57.6253 106.335 57.6019C105.273 57.5302 104.123 56.7577 100.17 57.038C97.4943 57.2299 89.4348 57.028 87.2292 58.6446C86.7992 58.96 91.2506 58.2859 95.3241 58.2509C99.3992 58.2175 98.6366 58.4828 98.0336 58.5829C97.4305 58.683 95.5391 59.2936 91.852 59.5289C88.1682 59.7641 82.6216 60.0461 83.6513 60.4148C84.681 60.7835 91.3917 60.7434 93.9769 60.1745C96.5637 59.604 97.8757 59.0551 99.7872 59.0884C101.701 59.1218 102.549 59.3554 105.206 59.5239C107.864 59.6924 109.456 59.961 108.927 60.3964C108.394 60.8319 107.795 61.269 104.995 60.6317C102.194 59.9944 100.175 59.5589 97.024 60.4982C93.8694 61.4375 93.1168 61.5376 91.6302 61.5376C90.1436 61.5376 89.4432 61.7044 89.4432 61.7044C89.4432 61.7044 91.1952 62.0147 92.0468 62.0147C92.8985 62.0147 91.9225 62.7121 85.2622 62.4769C78.6019 62.2416 76.0872 62.0748 74.9534 62.1415C73.8195 62.2083 73.534 61.9063 74.2798 61.2022C75.0223 60.4982 74.352 60.9019 76.9372 60.8669C79.5224 60.8335 79.5946 60.7651 80.3035 60.7334C81.3836 60.6817 80.2884 60.0227 78.7094 60.0227C77.8225 60.0227 77.1153 59.9293 77.2916 59.7608C77.4512 59.6106 77.3639 58.371 82.1042 57.8772C82.1596 57.8722 83.1054 57.7387 82.4771 57.7037C81.6456 57.657 79.173 57.7037 79.2385 57.6536C80.374 56.8161 80.196 56.8078 82.6048 56.706C85.0169 56.6059 83.5438 56.3373 84.8204 56.3023C86.092 56.2689 88.7007 56.0286 88.7679 55.7484C88.8401 55.4681 82.4805 55.8201 82.9071 55.5065M77.6091 75.1965C79.5812 78.046 82.8013 80.7254 85.7325 81.9333C92.3929 84.6778 91.4001 85.3118 95.5105 85.5937C97.1466 85.7038 98.3645 85.8523 99.3337 85.8957C101.48 85.4269 102.451 82.2503 102.646 81.0891C102.843 79.9296 102.028 77.6106 100.466 77.709C98.9406 77.8041 97.2995 78.001 95.8179 76.0957C98.136 76.5512 98.7491 76.2075 101 76.1308C102.132 76.0907 102.008 76.2842 103.194 76.1441C103.16 75.9906 102.886 75.4534 102.045 75.5068C99.458 75.672 97.3112 74.7994 94.9125 75.3817C94.8437 74.9028 96.4462 74.1955 97.1097 73.9219C98.0302 73.4647 102.193 73.3846 102.1 72.5771C101.994 71.6629 102.085 71.6095 102.33 70.9422C102.576 70.2731 101.816 70.7837 101.108 70.5367C100.399 70.2898 100.541 69.9044 99.6209 70.465C97.2844 71.8931 99.2968 69.6542 99.6209 69.3055C100.399 68.4613 100.541 68.9184 101.994 68.9184C103.447 68.9184 103.553 69.3405 104.297 69.0586C105.04 68.7783 104.014 67.1233 103.553 65.2931C103.093 63.4629 102.278 60.8953 102.278 60.8953C101.497 60.9303 100.295 60.65 99.8712 60.8602C99.4446 61.0721 99.8343 61.7061 100.189 62.4085C100.543 63.1142 100.686 63.8683 99.7654 64.6791C98.8449 65.4883 98.346 65.9287 97.8185 66.6678C97.2776 67.4186 97.1903 67.16 97.1281 66.526C97.1567 66.4226 97.0106 66.7496 97.2491 66.174C97.4893 65.6001 97.2608 65.9321 97.9563 64.2921C98.6282 62.7171 97.4641 61.6977 96.2396 62.3367C91.2926 65.8753 87.7499 63.7899 80.7419 63.4996C77.3303 63.3611 74.5435 63.6064 74.5435 63.6064C74.5435 63.6064 74.6107 64.3121 74.7115 64.7492C74.777 65.4799 74.1673 65.7886 73.6348 67.0198C73.104 68.2511 74.7686 68.6014 75.1583 69.3772C76.1847 71.4143 71.3889 68.3528 71.6694 69.5541C71.7769 70.0179 72.0054 70.4333 72.9629 70.7503C73.9203 71.0673 73.9203 71.8047 71.8643 71.2758C69.8099 70.7503 69.4387 68.1109 68.9599 67.0715C68.4812 66.0338 68.162 69.1653 69.8284 71.1707C71.493 73.1761 73.7288 74.2055 75.1852 74.3189C75.7966 74.369 76.5542 73.2929 76.524 72.5338C76.524 72.5338 76.524 72.8508 76.8431 73.765C77.0128 74.2522 77.3437 74.7961 77.6158 75.1998L77.6091 75.1965ZM63.719 58.346C63.719 58.346 64.2162 59.4354 66.9778 59.8575C69.741 60.2796 71.0513 60.2446 73.0351 59.7524C75.0206 59.2586 76.4366 57.8522 76.4366 57.8522C76.4366 57.8522 73.7087 58.7314 71.5838 58.2743C69.4572 57.8171 68.288 56.691 66.41 56.3039C64.5354 55.9169 63.6468 55.8468 63.6468 55.8468C63.6468 55.8468 64.2498 57.4284 66.3748 58.1325C68.4997 58.8365 69.4219 58.9783 69.4219 58.9783C69.4219 58.9783 65.9145 59.0117 63.7174 58.346H63.719ZM102.419 42.2129C102.221 41.7041 102.047 40.8782 102.557 40.0924C103.72 38.3106 106.041 38.0137 107.41 39.0614C105.514 35.738 102.072 38.7844 101.583 39.4118C101.573 38.2339 102.949 35.7897 103.62 35.0306C101.2 35.713 100.849 37.5849 100.432 38.3423C100.852 35.4511 98.519 32.7733 95.7188 32.805C97.1315 33.4574 99.2212 34.41 98.9457 38.9379C98.9054 38.5976 98.8734 38.359 98.8734 38.359L98.855 38.4041C98.4972 36.7257 97.4859 35.6396 95.9691 34.8888C95.9691 34.8888 98.5005 37.5465 98.1008 39.989C97.9042 39.964 97.1449 39.8539 94.202 39.4084C90.2998 38.8178 87.6811 43.8679 86.4733 45.6381C85.2723 47.4099 85.0573 47.3431 81.869 48.5244C78.6808 49.7056 80.1708 54.0333 80.0986 54.4287C80.0986 54.4287 81.6943 53.6746 82.6149 53.5411C83.5354 53.411 86.0147 52.8871 87.928 52.7553C89.8413 52.6252 90.0529 52.6903 96.5016 52.6903C102.95 52.6903 107.057 52.6252 107.057 52.6252C107.63 46.9594 105.44 46.8593 102.418 42.2113L102.419 42.2129ZM96.7704 38.6059C93.8156 37.0076 90.5552 37.0076 89.3172 38.3774C84.471 43.7378 82.9139 51.4673 73.109 44.0615C70.5944 42.1612 68.9633 41.3521 66.8737 42.4782C64.784 43.6043 63.1546 45.9617 63.1546 45.9617C63.1546 45.9617 63.4738 41.8809 66.3764 40.6497C69.2825 39.4184 73.4987 40.5779 77.0414 39.0664C80.5823 37.5549 84.3954 33.6442 86.2869 32.4864C90.1134 30.1457 94.9344 32.5998 96.3101 35.8998C86.2734 30.3242 84.5382 42.7618 80.2632 39.8756C84.7616 39.6303 84.345 33.0353 91.1767 33.2605C84.1922 31.4136 83.915 42.238 71.3368 41C71.3368 41 77.2513 45.6097 80.2632 44.1332C85.1496 41.7341 85.8132 34.7971 93.1303 35.9883C95.1175 36.3136 96.5335 37.3213 96.7704 38.6076V38.6059ZM89.1207 30.3225C80.332 28.7843 81.3785 37.6032 69.4236 37.9386C78.8102 41.6557 81.5583 31.4186 89.1207 30.3225ZM83.6647 29.53C83.6647 29.53 80.159 28.4039 77.1119 31.3235C74.0665 34.2448 72.7898 34.702 71.0899 35.3693C69.39 36.0383 69.0708 36.0383 69.0708 36.0383C72.5227 36.7774 74.483 36.7023 77.2547 34.42C75.3868 34.6319 74.3403 35.7464 72.6135 35.6513C77.2144 34.123 78.8068 29.5767 83.6664 29.53H83.6647ZM77.4294 49.1266C77.4294 49.1266 74.5956 50.111 71.7601 49.3035C67.8211 48.179 65.8137 48.5127 63.5074 50.0776C66.1077 43.7211 72.7949 49.1283 77.4294 49.1283V49.1266ZM78.7413 50.9568C78.7413 50.9568 77.2883 52.7503 73.7104 52.9972C70.1324 53.2441 69.6016 52.8204 68.0428 52.5735C66.4839 52.3282 65.7045 52.6085 65.7045 52.6085C65.7045 52.6085 66.8384 50.0059 69.9191 50.8851C73.0015 51.766 75.2339 51.9762 78.7396 50.9568H78.7413ZM78.2441 54.1935C78.2441 54.1935 77.7485 57.5018 73.7456 56.9379C69.741 56.3757 70.203 55.5665 67.9706 55.1795C65.7398 54.7924 65.634 54.7223 65.634 54.7223C65.634 54.7223 66.7678 53.4193 70.628 54.1601C74.4881 54.8975 75.1986 54.7924 76.8263 53.8064L78.4557 52.8221L78.2424 54.1935H78.2441ZM69.1582 62.5853C70.9992 61.9163 70.717 61.1422 70.717 61.1422C70.717 61.1422 68.2712 61.9163 66.358 61.4592C64.4464 61.002 63.6317 60.4048 63.6317 60.4048C63.6922 63.2944 65.5349 63.9 69.1582 62.5853ZM103.55 41.1702C103.726 40.5012 105.777 38.052 107.588 40.2092C109.819 42.8686 105.678 47.6051 110.224 48.0939C109.763 47.6251 107.941 47.4449 108.698 45.3645C108.698 45.3645 109.107 46.4205 110.118 46.9311C111.126 47.4416 110.862 48.3575 110.862 48.3575C109.738 48.5594 109.029 48.6612 108.557 48.4176C106.666 47.4349 106.611 43.5793 106.528 42.268C106.421 40.6113 105.147 40.2126 103.552 41.1702H103.55ZM71.1739 62.7672C71.1739 62.7672 70.6431 64.3855 69.2606 65.1963C67.8798 66.0055 65.9313 65.5133 65.9313 65.5133C65.9313 65.5133 69.5092 64.5106 71.1756 62.7672H71.1739ZM65.8255 44.7538C65.8255 44.7538 67.5607 43.8746 69.1195 44.0848C70.6784 44.2967 72.2019 44.3651 72.2019 44.3651C72.2019 44.3651 70.8027 45.3862 69.5798 45.191C68.3569 44.9974 65.6995 45.2093 65.0276 45.543C64.3557 45.8767 65.3837 44.9974 65.8255 44.7522V44.7538ZM98.6114 29.8871C98.6114 29.8871 100.879 30.2391 102.404 31.5754C103.925 32.9135 105.378 34.4968 105.378 34.4968C105.378 34.4968 103.464 33.1587 102.438 32.5798C101.408 31.9992 101.391 31.9992 101.391 31.9992C101.391 31.9992 101.638 32.7033 101.267 33.5825C100.898 34.4617 100.898 34.4968 100.898 34.4968C100.898 34.4968 101.037 31.0299 98.6114 29.8871ZM91.3312 29.2364C91.3312 29.2364 93.0144 28.3388 94.464 29.0612C95.9204 29.782 98.2906 31.0499 98.823 31.6138C99.3555 32.1761 99.374 32.2995 99.374 32.2995C99.374 32.2995 96.3622 30.2408 94.9108 30.0289C93.4578 29.8187 94.0424 29.3432 92.6431 29.7119C91.2422 30.0806 90.8878 30.1173 90.8878 30.1173C90.8878 30.1173 91.0843 29.3615 91.3329 29.2381L91.3312 29.2364ZM104.227 35.6396C104.227 35.6396 105.253 35.1291 106.443 35.8681C107.627 36.6072 107.948 36.9593 107.948 36.9593C107.948 36.9593 105.646 35.7097 104.227 35.6396ZM104.344 41.4955C104.344 41.4955 105.265 41.5673 105.619 42.4282C105.974 43.2907 106.189 44.1532 106.189 44.1532C106.189 44.1532 105.09 42.253 104.344 41.4955ZM107.38 62.4051C107.38 62.4051 106.869 62.8806 105.477 62.6337C104.082 62.3868 103.946 61.8562 103.946 62.1582C103.946 63.583 105.677 65.7335 105.866 66.903C106.112 68.4246 106.579 70.6685 106.839 70.7369C106.839 70.7369 107.927 65.8637 107.941 65.6401C108.065 63.0091 108.314 62.3234 107.382 62.4051H107.38ZM102.633 97.1555C102.633 97.1555 102.873 96.2129 104.177 96.8802C105.483 97.5475 106.547 98.8822 106.787 99.7081C107.027 100.532 106.982 101.28 106.982 101.28C106.982 101.28 107.617 100.926 107.815 99.276C110.229 94.2125 103.374 92.6375 102.539 89.6729C101.506 95.03 107.245 93.2665 107.46 98.8038C107.46 98.8055 106.039 96.2579 104.696 95.4854C103.859 95.0033 102.216 95.2302 102.633 97.1571V97.1555ZM103.417 97.4241C103.417 97.4241 103.703 99.3944 104.771 99.9833C105.838 100.574 105.72 100.691 106.115 101.004C106.51 101.318 106.51 99.9416 105.601 99.3544C104.692 98.7654 104.203 98.315 103.417 97.4241ZM107.287 82.4255C107.287 82.4255 108.326 84.0922 107.412 85.3969C106.071 87.3138 104.662 86.5564 103.537 88.9855C103.537 88.9855 103.815 86.5764 105.181 85.8907C106.547 85.205 107.449 83.937 107.287 82.4255ZM104.976 84.2557C104.674 85.2917 104.623 85.5387 104.623 85.5387C105.267 84.3508 105.88 83.8369 106.394 82.3721C106.394 82.3721 106.179 83.6551 105.949 84.3842C106.35 84.0371 107.106 83.3481 107.03 82.5573C106.943 81.6447 106.249 81.0775 106.249 81.0691C105.892 82.3254 105.315 83.0795 104.974 84.254L104.976 84.2557ZM50.1078 95.9693C46.5937 91.4397 48.8731 86.85 52.5351 84.3107C58.6931 80.0397 65.8154 85.2584 67.5019 76.0173C66.2538 80.3284 62.0057 81.8749 59.2475 81.1892C59.2475 81.1892 63.6754 80.7671 65.0578 77.3186C66.4386 73.8701 66.3311 70.8437 66.3311 70.8437C70.2383 74.4891 70.8413 82.0218 64.2398 83.0545C58.3958 83.9687 47.4856 82.9477 50.1061 95.9676L50.1078 95.9693ZM72.4388 75.0296C72.4388 75.0296 74.814 78.7935 73.8935 82.1002C72.9729 85.4085 71.5182 88.2247 67.7639 89.2775C64.0096 90.3335 62.2022 90.5087 61.4933 91.5131C60.7845 92.5158 61.1574 93.8338 61.1574 93.8338C61.2128 92.2371 61.7402 91.3846 63.4435 91.1944C62.6994 91.8985 62.0258 93.0062 62.3265 94.3426C62.6289 95.679 63.4251 98.9173 62.859 101.769C62.2912 104.616 60.556 106.482 60.556 106.482C60.556 106.482 62.3618 102.471 60.9088 98.8839C59.4574 95.2936 58.5705 90.1917 62.0073 88.9955C65.4442 87.7976 69.1279 87.4106 70.7237 84.9147C72.3178 82.4172 72.8839 79.8112 72.3178 77.8775C71.7501 75.9406 70.5809 73.443 70.5809 73.443C70.5809 73.443 72.0339 74.3223 72.4404 75.028L72.4388 75.0296ZM62.2559 87.1336C64.9587 86.0342 69.1145 84.209 70.3844 81.3444C70.6498 80.7455 70.9169 80.1665 70.9169 80.1665C71.3956 83.2764 71.0882 84.8146 68.1889 86.3411C69.1363 85.5186 69.6906 84.3424 69.7478 83.8252C68.5266 85.4085 64.6295 86.9935 62.2576 87.1336H62.2559ZM42.359 111.163C42.0936 111.919 41.934 112.076 42.0398 111.972C45.8932 108.143 49.2511 110.909 53.4522 109.123C64.3523 104.483 55.5486 97.2756 56.0021 91.1444C56.1802 88.7536 57.1712 87.6959 58.4832 86.7098C59.7951 85.7255 62.3433 84.2473 62.3433 84.2473C62.3433 84.2473 59.0476 84.7395 56.8891 86.216C54.7289 87.6942 53.2389 90.4019 54.1964 93.7453C55.3101 97.6343 59.9647 101.775 56.5699 105.145C56.5699 105.145 58.1287 102.753 56.926 100.854C55.7216 98.954 54.0922 96.9469 53.595 95.6106C53.0995 94.2742 53.1347 93.1831 53.1347 93.1831C53.1347 93.1831 50.8318 94.6963 53.2053 98.355C54.3559 100.129 56.4103 102.049 55.6511 104.159C54.7255 99.98 52.3654 100.22 50.7612 97.7578C50.7612 97.7578 51.0804 99.5863 52.5687 101.099C57.5374 106.153 50.0943 108.4 46.1553 107.855C48.0064 108.691 50.2119 108.804 52.4242 108.454C48.4834 109.923 43.7633 107.161 42.359 111.161V111.163ZM62.2341 75.6553C59.8522 77.8709 56.2541 77.2602 55.3269 81.1442C60.2587 76.059 66.153 83.6551 65.1048 64.8893C64.8109 67.9458 64.49 73.5565 62.2358 75.6553H62.2341ZM53.338 70.6735C53.338 70.6735 54.487 66.9598 56.8723 65.5183C59.2609 64.0768 62.2375 64.5156 62.2375 64.5156C62.2375 64.5156 56.2222 65.5266 53.338 70.6735ZM59.3852 67.0849C59.3852 67.0849 56.4439 69.0369 55.8493 72.6606C55.2563 76.2843 55.2328 78.9703 55.2328 78.9703C55.2328 78.9703 54.4836 76.1958 54.5626 74.6092C54.6415 73.0226 54.9892 71.8764 54.9892 71.8764C54.7708 72.392 54.2484 73.2962 53.7294 75.063C53.4556 73.1527 54.3627 67.532 59.3869 67.0849H59.3852ZM72.1196 87.5524C72.1196 87.5524 72.3682 90.1216 69.568 91.5998C66.7695 93.0763 65.3518 94.2025 65.4223 96.5248C65.4946 98.8472 64.9268 102.154 64.1826 103.105C63.4402 104.056 63.2621 104.091 63.2621 104.091C63.2621 104.091 64.6429 101.522 64.4665 99.5512C64.2902 97.5809 63.4738 94.2392 65.0696 92.9712C66.662 91.7049 70.9135 90.3302 72.1179 87.5524H72.1196ZM72.7915 89.3125C72.7915 89.3125 73.0754 91.5631 70.3474 92.761C67.6195 93.9572 66.5209 94.9065 66.1329 96.4214C65.7432 97.9329 65.7432 98.672 65.7432 98.672C67.9353 93.1964 74.2445 95.0784 72.7915 89.3125ZM66.2202 102.035C66.2202 102.035 68.6643 99.5729 69.6201 98.2349C70.5776 96.8985 71.1436 94.9099 71.1436 94.9099C71.1436 94.9099 70.3138 95.1317 69.9913 95.5055C69.6688 95.8775 69.0708 97.7928 67.7942 99.4445C66.5192 101.099 65.7751 102.401 66.2185 102.034L66.2202 102.035ZM65.8137 100.432C65.8137 100.432 66.4873 98.5686 67.3356 97.6176C68.1856 96.6666 68.6475 96.1027 68.6475 96.1027C68.6475 96.1027 67.7959 98.672 65.8137 100.432ZM49.7802 98.7604C49.7802 98.7604 49.8525 100.521 50.8435 101.435C51.8363 102.351 52.2596 103.477 52.4376 104.249C52.614 105.023 52.2982 105.834 52.2982 105.834C52.2982 105.834 52.5099 104.426 51.2702 103.617C50.0305 102.81 49.4627 101.964 49.4627 101.964C49.4627 101.964 49.498 103.3 50.0305 103.969L50.5613 104.638C50.5613 104.638 48.6934 104.039 48.2231 102.421C47.7527 100.803 49.498 99.3594 49.7819 98.7604H49.7802ZM51.0199 92.7794C51.0199 92.7794 50.8788 90.1417 51.9774 88.4516C53.076 86.7632 55.1656 85.6037 55.1656 85.6037C55.1656 85.6037 52.6493 88.2064 51.0199 92.7794ZM47.6083 107.281C48.3793 107.348 49.2729 107.331 49.9112 107.037C51.2786 106.412 51.4449 105.362 51.4449 105.362C51.4449 105.362 50.5949 106.505 49.2797 106.694C48.6817 106.78 48.1676 106.724 47.783 106.638C48.2164 106.6 48.7203 106.513 49.0966 106.457C49.9196 106.335 50.5445 105.834 50.5445 105.834C50.5445 105.834 50.3782 105.853 49.8273 105.996C49.278 106.14 48.0719 105.839 48.0719 105.839C48.0719 105.839 47.8384 105.909 47.5545 106.106C47.2925 106.29 46.9548 106.413 46.9028 106.433H46.8994L46.896 106.435C46.896 106.435 45.0147 106.712 44.163 107.591C43.3131 108.47 43.1888 108.929 43.1888 108.929C43.1888 108.929 45.4111 106.99 47.2942 107.247C47.4134 107.264 47.5159 107.276 47.6083 107.279V107.281ZM41.4368 121.016C41.4368 121.016 40.5146 117.391 41.7206 115.07C42.925 112.748 44.3411 111.305 45.7941 110.953C47.2471 110.601 48.5557 110.531 48.5557 110.531C48.5557 110.531 45.5085 111.34 44.163 113.417C42.8175 115.491 42.2498 116.687 42.285 117.708C42.3203 118.727 42.2128 119.079 42.2128 119.079C42.2128 119.079 42.6395 116.652 44.0203 114.964C45.401 113.275 46.5349 112.886 46.5349 112.886C46.5349 112.886 44.4469 115.526 43.985 116.897C43.5247 118.27 41.9995 121.12 41.4351 121.015L41.4368 121.016ZM52.436 110.409C52.436 110.409 49.3368 111.622 48.3457 112.484C47.3513 113.347 46.0595 114.982 46.0595 114.982C46.0595 114.982 47.1581 112.308 48.7169 111.268C50.2758 110.23 52.4192 110.004 53.039 109.738L53.6588 109.475C53.6588 109.475 52.7921 110.441 52.4376 110.407L52.436 110.409ZM61.5051 74.8895C61.6462 74.6793 62.9917 72.3553 63.3831 69.2588C63.7711 66.164 63.8786 64.931 63.8786 64.931C63.8786 64.931 63.3831 66.4793 62.4609 69.4339C61.5404 72.3903 60.3695 73.6566 59.7329 74.8528C59.0946 76.049 58.3874 76.5412 58.5638 76.648C58.7418 76.7531 61.1507 75.4517 61.5051 74.8878V74.8895ZM62.5684 64.8793C62.5684 64.8793 61.7537 67.8357 60.5493 69.5924C59.3449 71.3542 58.9905 72.2668 58.9905 72.2668C58.9905 72.2668 60.9407 70.1563 61.2934 69.6275C61.6479 69.1003 60.1949 71.9498 59.3113 73.2161C58.4244 74.4824 57.823 76.5946 57.823 76.5946C57.823 76.5946 56.6707 77.5789 56.459 77.966C56.459 77.9693 56.1315 70.3849 62.5701 64.8776L62.5684 64.8793ZM74.0228 97.5542C72.2943 98.043 71.9718 105.929 64.8831 107.828C67.2936 108.32 73.8111 111.065 74.4495 109.518C75.0861 107.968 76.1141 105.085 76.1141 105.085C76.1141 105.085 76.1494 108.569 76.4686 109.8C76.7877 111.031 77.2127 110.749 77.4243 109.658C77.6377 108.569 78.276 107.299 78.276 106.667C78.276 106.035 78.6304 109.868 81.3567 111.312C84.0847 112.755 85.7141 112.615 85.5007 110.923C85.2891 109.234 83.8713 102.269 84.0847 98.4685C84.2997 94.6696 84.4391 93.8955 84.4391 93.8955C84.4391 93.8955 87.634 111.258 90.5619 111.947C94.1801 112.795 91.5479 99.5045 91.5782 98.2149C91.6403 95.9409 91.4102 93.4617 92.3744 91.6449C93.0715 95.8008 93.5183 101.548 95.0654 104.873C95.4921 105.789 94.5699 99.7364 94.3582 96.1478C94.1432 92.5591 94.637 89.7446 94.637 89.7446C85.6519 89.2491 79.8164 83.897 77.4193 83.4565C75.7446 83.1479 76.4786 96.8568 76.2888 101.216C76.2535 102.025 75.2255 99.1759 74.0211 97.5559L74.0228 97.5542ZM68.9919 191.857L34.3111 187.714C34.6437 186.895 35.272 185.801 36.8661 183.428C39.8527 178.992 48.6245 163.209 55.1404 152.639C56.1348 156.496 59.2643 163.481 61.1624 166.619C63.2873 170.138 62.1048 173.028 63.6636 176.404C65.2224 179.783 69.2606 180.133 69.5445 182.245C69.8284 184.356 70.8195 187.03 69.9712 189.282C69.6201 190.207 69.3664 190.991 68.9919 191.853V191.857ZM75.7345 266.101C76.3678 262.542 78.5448 236.359 78.8219 235.032L76.5677 266.638L78.5448 247.096L77.2664 266.926L79.388 244.55L77.9602 266.675L80.3404 240.475L78.7665 266.383L82.8702 220.823L79.6097 265.69L81.3668 248.333L80.2682 265.435L86.5069 196.093L40.3785 189.68L54.5861 192.184L37.6405 190.055L56.244 193.061L38.5005 190.856L58.0414 193.986L40.2777 191.803L55.2647 194.293L41.6938 192.793L80.364 198.837L75.7362 266.099L75.7345 266.101ZM75.3532 195.616L85.5142 196.807L83.9486 210.801L84.7885 197.246L75.3532 195.616ZM63.9912 194.434L84.2728 197.472L82.9475 215.221L83.2616 197.953L63.9912 194.434ZM50.8788 197.391C59.5145 198.387 69.4723 199.945 76.5273 201.403C75.9999 208.527 75.076 225.141 75.0391 221.457L74.8442 202.481L50.8805 197.391H50.8788ZM13.9657 205.906C13.9657 205.906 12.4791 218.15 11.3452 228.142C10.2113 238.136 9.71582 244.751 9.71582 244.751C9.71582 244.751 18.6422 246.861 22.3276 248.409C26.0097 249.958 15.4556 244.891 13.754 239.402C12.0541 233.915 14.394 217.656 13.9673 205.906H13.9657ZM37.244 139.971C35.3627 144.66 33.6493 149.002 32.3727 151.741C27.7751 161.618 18.58 185.956 17.7737 192.631C17.4579 195.24 18.9328 203.332 22.1714 212.116C25.4066 220.903 29.0098 232.572 30.0361 236.078C31.128 239.816 25.8736 251.099 29.3256 252.86C30.787 253.606 30.7718 255.32 32.6717 254.996C33.4343 254.866 34.1751 254.564 34.7546 254.851C36.2446 255.59 35.6936 257.907 38.1763 256.749C40.0157 255.894 39.8242 258.243 41.378 257.769C42.9284 257.293 43.1417 257.575 44.1345 258.456C45.1256 259.334 47.6788 260.145 46.7549 254.724C45.8344 249.307 45.5505 249.974 45.6228 248.636C45.6933 247.3 46.5786 247.582 47.7477 249.023C48.0551 249.404 50.4857 253.815 52.3704 254.072C53.6286 254.245 54.408 253.773 54.408 253.773C54.408 253.773 53.7915 252.255 51.9219 249.477C50.7747 247.777 49.2427 245.221 47.8031 243.047C46.125 240.516 44.9441 238.032 42.6294 236.048C40.9479 234.609 41.0168 234.353 40.4793 231.869C40.0543 229.914 34.4405 199.118 34.3011 197.825C33.7938 193.161 29.8715 191.937 29.0232 192.474C29.554 183.652 35.0368 183.034 45.1524 160.645C47.2068 156.242 50.0876 151.119 49.0445 148.558C48.0013 145.995 44.6888 143.903 42.2263 142.24C42.0616 142.163 41.8953 142.083 41.7257 142.004C39.6596 141.05 38.2418 140.416 37.2457 139.967L37.244 139.971ZM127.198 118.102C127.831 111.769 127.798 111.453 127.764 110.537C127.727 109.623 127.87 109.411 127.87 109.411C127.87 109.411 126.029 111.382 125.175 112.578C124.327 113.774 124.292 113.809 124.292 113.809C124.292 113.809 124.186 111.17 125.886 109.376C127.588 107.583 128.859 107.301 129.214 105.436C129.393 104.506 130.415 101.073 129.761 100.539C128.629 99.6213 120.242 101.058 116.138 102.916C117.223 103.11 122.644 103.075 121.991 104.701C119.432 111.098 113.093 114.403 112.567 108.148C112.426 106.453 114.766 103.942 114.054 103.887C112.557 104.189 110.23 104.194 109.49 104.595C105.646 106.66 107.412 110.494 103.385 112.595C102.162 112.993 100.935 112.341 100.093 111.033C98.9726 109.281 97.8975 101.745 97.8975 101.745C97.8975 101.745 98.0403 103.153 97.9714 106.67C97.8975 110.19 98.3225 110.823 98.519 112.796C98.519 114.345 101.375 114.643 99.9754 115.329C96.51 117.021 94.2893 115.829 93.861 119.618C93.5586 122.308 95.3661 131.09 94.1465 128.275C92.9203 125.459 90.661 118.189 88.4991 117.203C86.3339 116.217 70.4969 112.242 70.5389 113.601C70.5826 114.96 71.8156 114.622 73.8044 117.016C75.7916 119.406 75.543 121.433 75.0777 121.412C74.6124 121.392 72.7478 120.149 71.6325 119.618C69.9443 118.924 64.6933 117.096 61.0784 116.482C59.234 116.168 59.9143 115.005 59.827 113.951C59.5364 110.471 51.077 112.583 47.6503 118.284C47.2841 118.894 46.6844 119.568 46.1301 120.449C44.2151 123.486 42.1607 128.03 40.0089 133.189C46.246 135.631 49.5535 137.885 53.4522 139.791C54.0351 139.944 54.7541 139.971 55.4192 139.549C56.8723 138.636 57.2233 137.617 58.3757 135.276C58.6041 134.525 58.8242 133.768 59.0358 133.004C59.7346 130.489 58.5319 124.263 59.0392 120.951C60.1965 120.746 61.2229 122.767 63.9105 123.876C67.5708 125.386 68.4459 124.438 67.3104 126.409C66.1782 128.379 64.8663 128.626 64.0147 129.822C62.2879 132.253 66.6553 132.571 67.0618 136.19C67.344 137.316 62.2442 141.502 62.2442 141.502C62.2442 141.502 66.4235 139.038 69.825 136.928C73.2249 134.815 78.5028 131.896 85.8367 131.862C89.9925 131.842 103.437 136.604 111.925 132.838C116.923 130.623 118.329 127.838 125.278 128.125C116.394 124.557 114.03 133.693 105.935 131.954C111.186 131.188 113.172 126.861 121.265 124.402C124.814 123.324 126.647 123.506 127.195 118.097L127.198 118.102ZM38.3644 138.216C38.3644 138.216 35.104 137.231 34.7848 136.492C34.4657 135.755 35.0334 134.769 35.529 134.664C36.0245 134.557 39.3018 136.457 40.9664 137.054C42.6328 137.652 44.3142 138.181 44.3142 138.181C44.3142 138.181 36.557 134.38 36.2378 134.275C35.9187 134.17 36.3101 133.573 37.6556 134.17C39.0028 134.769 46.6542 138.04 50.6571 139.801C54.66 141.559 56.3784 142.615 56.8202 142.86C57.2636 143.106 57.1393 144.62 56.4674 144.69C55.7938 144.759 56.3599 145.113 55.2277 144.549C54.0922 143.986 50.4807 142.648 50.4807 142.648C50.4807 142.648 53.1902 144.233 53.8974 144.584C54.6062 144.936 55.2445 145.693 55.2445 145.693C55.2445 145.693 55.2261 146.079 54.6398 146.01C54.0569 145.938 45.4498 141.804 38.3644 138.216ZM66.7309 145.406C66.5259 145.415 66.4839 144.534 70.6296 142.949C71.2999 142.693 77.2194 139.02 80.4748 137.947C76.9255 138.302 66.5327 144.477 62.2307 144.317C69.4286 141.884 78.5246 133.411 86.9235 134.747C88.6906 135.027 89.6145 135.59 89.6145 135.59C89.6145 135.59 87.9683 135.097 85.5578 135.766C83.1457 136.435 83.2028 136.47 81.5348 137.033C85.0253 136.559 86.0366 136.065 89.082 137.051C92.1308 138.035 91.1011 138.017 93.0144 139.213C94.9276 140.409 97.1953 142.45 99.6747 142.662C102.154 142.872 103.572 143.012 103.572 143.012C103.572 143.012 100.026 144.702 96.4848 143.154C92.9438 141.606 91.5832 139.734 90.0395 140.199C89.5725 140.338 92.4668 145.792 90.3939 149.909C88.904 152.865 87.9834 153.429 86.5674 153.85C85.148 154.274 83.4833 154.307 82.635 155.505C81.7817 156.701 80.5437 157.827 80.5437 157.827C80.5437 157.827 80.9334 156.524 81.6759 155.398C82.42 154.274 82.9895 153.429 83.1289 153.042C83.2683 152.655 80.8612 151.741 81.2156 149.981C81.57 148.221 80.7923 146.04 80.8981 145.758C81.004 145.478 80.6126 148.89 77.8493 150.86C75.0861 152.83 74.4495 153.887 71.2596 153.887C68.0697 153.887 67.1239 154.002 66.9375 153.887C66.7527 153.773 67.7522 152.832 70.4835 152.373C73.2098 151.916 75.7261 150.757 77.3202 148.68C78.9126 146.606 78.9126 146.077 79.4804 145.655C80.0465 145.231 79.6232 144.634 79.6232 144.634C79.6232 144.634 76.1863 145.339 74.6611 146.429C73.1392 147.518 72.7126 147.765 72.7126 147.765C72.7126 147.765 70.8698 150.263 67.9638 150.123C65.0595 149.983 61.3405 149.948 60.986 149.595C61.663 149.465 64.102 149.877 67.6464 148.084C71.1873 146.289 70.7993 145.655 72.1095 144.707C73.4198 143.758 74.4478 143.017 74.4478 143.017C74.4478 143.017 72.7478 143.509 66.7258 145.41L66.7309 145.406ZM97.071 89.8864C98.4653 89.9949 98.9994 89.9515 100.343 89.4643C100.343 89.4643 100.026 98.1565 100.313 100.23C100.594 102.307 100.699 103.959 100.204 103.469C99.71 102.975 98.0302 91.9619 97.071 89.8848V89.8864ZM174.652 23.8576C174.652 23.8576 174.156 24.8002 173.802 27.1293C173.447 29.4566 173.499 29.9888 174.067 29.9888C174.635 29.9888 175.696 30.2107 177.044 28.2921C177.558 27.558 177.979 26.7172 178.253 25.9297C178.198 25.4259 177.42 24.9988 177.507 24.9287C177.583 24.872 178.298 24.7769 178.609 24.3931C178.65 23.8209 178.547 23.3871 178.267 23.2069C177.726 22.8599 175.243 21.6353 174.652 23.8576ZM181.918 4.60301C181.918 4.60301 182.058 3.65372 182.997 2.52757C183.934 1.40143 184.253 1.15618 184.253 1.15618C184.253 1.15618 184.325 3.14487 184.374 3.46019C184.43 3.77717 183.348 3.38845 181.917 4.60301H181.918ZM180.294 6.19463C180.294 6.19463 180.721 5.94938 181.52 6.23968C182.316 6.52997 182.217 5.8326 183.208 5.37714C185.651 4.25599 183.924 7.41754 184.201 11.5334C184.307 13.1167 184.164 14.0326 184.164 14.0326C180.732 13.8524 181.962 11.3365 182.004 9.7032C182.039 8.43691 181.641 7.49596 180.294 6.19296V6.19463ZM181.952 14.6833C181.952 14.6833 182.379 15.0003 183.733 15.037C185.088 15.0703 186.168 14.8701 186.168 14.8701C186.168 14.8701 184.831 15.2388 184.567 15.2822C184.302 15.3273 183.991 15.4424 184.178 15.9512C184.361 16.4617 184.458 16.8571 184.458 16.9806C184.458 17.1041 182.068 16.3032 181.954 14.6849L181.952 14.6833ZM183.543 39.4118C183.518 48.6511 183.492 58.6263 183.492 60.3914C183.667 60.3847 184.127 60.3614 184.127 60.3614C184.127 60.3614 184.236 49.3952 184.357 39.5536L183.543 39.4134V39.4118ZM183.605 18.1601L183.6 20.9229L184.579 20.7211C184.787 19.5465 185.353 18.4821 185.377 18.332C185.397 18.1818 184.495 18.337 183.605 18.1585V18.1601ZM186.193 62.4302C187.949 63.1859 189.583 63.5646 191.229 63.6798C192.314 58.4177 193.121 54.1734 193.324 52.9472C193.924 49.2518 194.278 49.0048 193.003 47.1046C191.728 45.206 192.755 43.7628 192.79 43.3758C192.827 42.9904 194.208 40.2793 194.918 37.3246C195.328 35.6162 195.457 29.8604 194.775 28.3889C193.998 26.6988 192.573 22.4045 191.869 22.0558C191.172 21.7054 189.823 21.4118 189.157 21.3551C187.866 21.2483 185.597 21.6554 184.519 22.0157C184.008 22.1892 183.427 22.3294 182.872 22.4445C182.713 22.4478 182.548 22.4562 182.377 22.4762C181.698 22.5579 181.127 22.6797 180.675 22.7999C178.586 23.3554 179.064 25.0104 180.533 25.0104C181.853 25.0104 184.651 24.0962 188.948 24.0962C191.216 24.0962 190.949 24.1679 191.164 24.7302C191.379 25.2924 190.527 25.1522 188.473 25.0104C186.961 24.907 179.426 26.0965 179.172 26.2584C178.954 26.3985 177.934 27.84 178.613 28.4873C179.048 28.9027 180.391 29.5184 182.236 29.3031C186.474 28.8076 192.34 28.5607 192.652 28.9511C193.346 29.8237 192.494 29.7953 189.872 29.7953C187.25 29.7953 179.773 29.6902 179.547 31.9592C179.419 33.2355 182.238 33.2438 183.869 32.8217C185.72 32.3429 189.875 32.2495 190.971 33.1554C191.816 33.8544 188.338 33.2672 186.524 33.454C185.276 33.5808 180.186 34.4183 179.97 35.426C179.758 36.4104 180.255 36.6907 183.301 36.6222C186.346 36.5505 188.543 35.426 188.829 36.9025C189.022 37.9152 190.541 39.5352 188.72 44.537C187.697 47.3448 188.083 49.0399 188.861 49.9541C189.642 50.8701 188.438 51.0803 188.438 51.0803C187.604 51.4156 186.319 52.2448 185.874 54.2335V60.4582C186.938 60.5866 187.218 61.9363 185.676 61.9964C185.888 62.1382 186.062 62.2817 186.198 62.4302H186.193ZM182.622 62.3651C181.409 62.9006 180.252 63.256 179.11 63.4679C180.027 61.2123 180.993 59.0451 181.969 57.1331C182.18 56.7093 182.51 56.404 182.883 56.1638V60.4682C181.831 60.6233 181.539 61.938 183.081 61.9981C182.901 62.1198 182.752 62.2433 182.62 62.3651H182.622ZM183.43 61.7828C182.871 61.6594 182.733 61.1555 183.58 61.0087C184.24 60.8953 185.869 60.8402 186.311 61.0504C186.2 60.6684 185.073 60.5699 183.141 60.7084C181.962 60.7935 182.172 61.9397 183.43 61.7812V61.7828ZM183.2 62.7021C182.666 63.2176 182.733 64.3371 183.554 64.8226C184.656 65.4666 186.012 64.8226 185.814 63.5029C185.7 62.7555 185.004 62.2566 184.544 62.2083C184.189 62.1716 183.711 62.2149 183.2 62.7038V62.7021ZM183.069 65.9838C183.069 65.9838 183.081 65.8336 183.087 65.6101C183.093 65.3832 183.093 65.2864 183.093 65.2864C184.194 65.7035 185.041 65.4966 185.567 65.3598C185.355 65.7419 183.939 65.535 183.41 65.9921C183.41 65.9921 183.282 65.9838 183.067 65.9838H183.069ZM181.787 67.7706C181.787 67.7706 182.372 68.7566 183.398 70.5868C184.425 72.4153 184.3 72.1851 184.3 72.1851C184.3 72.1851 184.692 70.9371 184.194 70.0229C183.699 69.1086 183.366 68.523 184.112 68.3645C184.853 68.2044 185.617 67.9741 186.43 67.7973C187.245 67.6188 187.05 67.4186 187.05 67.4186C187.05 67.4186 185.17 67.7873 183.699 67.6471C182.227 67.507 181.752 67.4002 181.786 67.7689L181.787 67.7706ZM173.736 89.9114C174.799 92.7777 175.762 95.362 176.476 97.2789C180.276 94.673 183.113 92.5358 183.827 91.5414C185.506 89.2024 188.322 77.3587 190.46 67.3368C189.054 67.1016 187.766 66.7512 186.67 66.3525C187.186 66.6945 187.769 67.2651 187.561 68.0425C187.542 68.1209 184.776 73.3613 184.446 73.3613C184.43 73.3613 184.406 73.3463 184.374 73.3196C184.342 73.3463 184.32 73.3613 184.302 73.3613C183.971 73.3613 181.206 68.1209 181.188 68.0425C180.964 67.205 181.656 66.6044 182.199 66.2757C180.907 66.7646 179.321 67.19 177.579 67.4319C175.122 74.1621 173.345 80.7922 173.41 83.0261C173.476 85.2951 176.951 89.0773 175.04 89.8514C174.635 90.0132 174.212 90.0032 173.733 89.9098L173.736 89.9114ZM165.467 67.6655L165.529 67.829C165.7 67.6204 165.791 67.4636 165.791 67.4636C165.791 67.4636 165.666 67.5487 165.468 67.6655H165.467ZM162.912 68.7866L163.107 68.2544C163.085 68.2511 163.063 68.2461 163.038 68.2394C161.171 67.7372 161.314 65.3264 162.95 64.599C162.95 64.599 162.64 64.9928 162.44 65.5984C162.241 66.204 162.366 66.8096 163.075 67.2784C163.18 67.3485 163.296 67.3969 163.414 67.4302L163.535 67.1032C162.982 66.7979 162.819 66.0772 163.224 65.4632C163.696 64.7475 165.065 64.3037 167.153 65.1663C169.241 66.0322 171.929 67.2417 176.998 66.8697C179.444 66.6895 181.015 66.0705 182.142 65.5684C182.295 65.4999 182.058 65.203 181.986 64.9978C181.189 65.3181 177.727 66.1006 177.151 65.9688C178.841 65.5383 179.842 65.3331 181.895 64.5323C181.792 64.1452 181.722 63.8449 181.957 63.1659C181.085 63.5613 178.908 64.2654 177.259 64.3755C178.54 64.4839 179.481 64.4756 180.942 64.0902C180.942 64.0902 180.576 64.5673 177.104 65.1529C173.627 65.7402 168.369 64.277 168.369 64.277C170.771 64.6257 173.521 65.2097 175.705 64.6724C169.891 64.6407 169.471 63.3711 165.638 62.8039C162.944 62.4035 161.114 64.3771 161.015 66.0055C160.928 67.3852 161.774 68.4813 162.91 68.7866H162.912ZM163.923 68.7666L163.898 68.8433L163.923 68.8383V68.7666ZM204.767 68.8433L204.738 68.7666V68.8383L204.767 68.8433ZM205.124 67.1016L205.249 67.4286C205.366 67.3969 205.479 67.3468 205.585 67.2768C206.294 66.8079 206.418 66.204 206.22 65.5967C206.022 64.9911 205.709 64.5974 205.709 64.5974C207.352 65.3248 207.491 67.7372 205.622 68.2377C205.6 68.2444 205.578 68.2494 205.553 68.2544L205.751 68.785C206.887 68.483 207.73 67.3852 207.649 66.0038C207.55 64.3738 205.717 62.4018 203.02 62.8022C199.188 63.3711 198.77 64.6391 192.956 64.6708C195.14 65.2063 197.886 64.6224 200.288 64.2754C200.288 64.2754 195.031 65.7385 191.559 65.1513C188.083 64.5657 187.717 64.0885 187.717 64.0885C189.178 64.4756 190.116 64.4822 191.402 64.3738C189.748 64.2637 187.539 63.5997 186.669 63.2059C186.892 63.7949 186.867 64.1419 186.761 64.5306C188.817 65.3298 189.817 65.5367 191.508 65.9671C190.932 66.0989 187.47 65.3164 186.674 64.9961C186.6 65.2013 186.366 65.4999 186.518 65.5667C187.645 66.0689 189.215 66.6878 191.664 66.868C196.734 67.2384 199.417 66.0288 201.506 65.1646C203.594 64.3004 204.963 64.7458 205.432 65.4616C205.837 66.0755 205.677 66.7963 205.121 67.1016H205.124ZM203.137 67.829L203.196 67.6655C202.998 67.5487 202.879 67.4636 202.879 67.4636C202.879 67.4636 202.966 67.6221 203.137 67.829ZM165.883 68.79C166.545 68.1343 166.693 67.1083 165.752 65.8269C165.752 65.8269 165.628 66.4476 165.137 66.7796L164.85 66.0055C164.788 65.8136 164.608 65.6718 164.397 65.6718C164.185 65.6718 164.005 65.8119 163.946 66.0055L163.72 66.6161C163.419 66.1239 163.693 65.2914 164.472 65.1646C165.272 65.0328 166.115 65.6 167.36 66.1656C169.696 67.23 172.194 67.6388 174.564 67.6421C172.834 72.8841 171.509 78.1328 170.917 82.3404C168.945 77.0367 167.022 71.8581 165.885 68.7916L165.883 68.79ZM164.869 69.3956C164.937 69.3722 165.005 69.3455 165.074 69.3172C166.306 72.6305 168.384 78.2312 170.462 83.8169C168.334 84.9714 166.523 85.9424 164.869 86.7949V69.3956ZM163.617 69.5958C163.72 69.5958 163.822 69.5924 163.921 69.5858V87.2804C161.066 88.7336 158.611 89.8597 155.64 91.0509C158.396 83.6467 161.825 74.4224 163.617 69.5974V69.5958ZM151.454 99.5796H150.669C151.64 104.064 154.813 107.191 158.702 108.734C154.694 111.21 151.21 113.307 149.176 114.481C147.191 114.218 149.431 100.34 150.065 96.7484C150.127 96.383 151.415 95.6823 153.216 94.8648C152.504 96.7734 151.894 98.4034 151.452 99.5796H151.454ZM163.923 99.5796H152.462C152.969 98.2232 153.644 96.4097 154.422 94.3309C157.651 92.9262 161.838 91.3179 163.918 90.417L163.925 90.4136V99.5813L163.923 99.5796ZM173.063 99.5796H164.869V90.0299C168.667 88.6084 170.978 89.1824 172.624 89.6328C173.815 92.8377 174.899 95.7407 175.676 97.8245C174.843 98.3917 173.965 98.979 173.063 99.5779V99.5796ZM204.738 99.5796V69.5858C204.842 69.5924 204.943 69.5958 205.046 69.5958C207.765 76.9182 214.229 94.3209 216.198 99.5796H204.736H204.738ZM192.333 99.5796C194.759 93.1014 201.024 76.2259 203.587 69.3172C203.656 69.3455 203.724 69.3722 203.792 69.3956V99.5796H192.331H192.333ZM172.864 101.258C172.864 101.258 158.366 101.123 156.382 101.054C154.4 100.986 153.103 100.851 153.103 100.851C153.103 100.851 154.435 106.351 159.668 107.539C164.897 108.727 169.99 107.097 169.99 107.097C169.99 107.097 165.478 107.641 162.811 106.623C160.147 105.604 160.657 104.823 159.288 104.62C157.923 104.416 157.342 102.107 160.521 102.311C163.701 102.514 170.538 101.598 172.866 101.258H172.864ZM212.727 101.266C212.727 101.266 198.232 101.131 196.252 101.063C194.266 100.994 192.966 100.859 192.966 100.859C192.966 100.859 194.142 106.689 200.455 108.057C206.767 109.425 210.849 107.106 210.849 107.106C210.849 107.106 205.343 107.649 202.675 106.63C200.01 105.612 200.524 104.832 199.158 104.628C197.789 104.425 197.206 102.116 200.388 102.319C203.567 102.523 210.404 101.607 212.729 101.266H212.727ZM146.794 94.5445C146.794 94.5445 145.481 96.6199 145.02 98.2382C144.56 99.8566 143.782 101.722 143.782 101.722C143.782 101.722 143.994 98.4134 144.809 96.373C145.623 94.3326 146.028 93.5919 146.794 94.5428V94.5445ZM153.382 117.588C153.806 117.454 154.444 116.852 155.153 116.383C155.858 115.916 155.858 115.312 156.428 115.179C156.994 115.044 157.56 113.639 157.914 116.452C158.269 119.265 159.828 129.714 159.473 132.123C159.119 134.532 158.979 134.532 158.695 134.869C158.41 135.203 158.835 133.796 158.553 130.916C158.269 128.037 158.48 126.63 157.914 124.351C157.348 122.076 157.348 121.807 157.278 121.205C157.209 120.603 156.923 119.195 156.854 118.727C156.78 118.257 156.285 118.057 156.285 118.057C156.285 118.057 156.357 119.597 156.5 121.941C156.643 124.286 157.278 124.82 157.209 126.293C157.137 127.768 157.137 128.437 157.209 129.173C157.278 129.912 157.42 130.379 157.42 130.379C157.42 130.379 156.285 127.566 155.791 125.489C155.292 123.414 155.225 123.414 155.292 122.476C155.363 121.539 154.904 120.903 154.904 120.903C154.904 120.903 154.728 119.16 154.266 119.326C153.806 119.495 153.663 118.122 152.247 118.055C150.832 117.988 149.945 118.155 149.945 118.155C149.945 118.155 150.69 117.688 152.213 117.151C153.737 116.615 154.091 115.878 154.726 115.778C155.363 115.678 155.507 115.476 155.507 115.476C155.507 115.476 153.878 116.849 153.382 117.585V117.588ZM150.194 138.15C150.011 138.361 149.764 138.583 149.5 138.811H149.497C148.686 139.51 147.678 140.281 147.678 141.025C147.671 142.208 145.469 142.697 144.616 143.406C143.764 144.115 141.414 146.502 139.85 147.625C138.283 148.746 137.359 149.287 136.86 149.681C136.363 150.076 135.687 150.278 135.687 150.278C135.687 150.278 136.185 149.494 137.535 148.673C140.777 146.703 140.361 144.66 140.453 143.446C140.522 142.49 140.453 142.363 140.702 141.639C140.807 141.332 141.721 138.084 142.331 135.328C143.159 131.574 143.725 128.072 143.725 128.072C143.75 128.047 144.328 126.879 144.335 127.169C144.372 130.154 144.715 128.953 143.376 134.19C142.748 136.636 142.722 140.47 142.637 140.78C142.422 141.536 142.553 143.586 142.444 143.948C142.444 143.956 143.152 143.748 143.688 140.671C143.937 139.242 143.937 138.89 143.87 138.334C143.797 137.778 144.829 135.998 145.094 135.992C145.363 135.987 144.652 139.056 144.652 140.358C144.652 141.659 144.473 142.363 145.079 142.063C145.686 141.763 145.628 141.028 145.916 140.933C145.931 140.928 147.204 139.61 147.123 138.1C147.093 137.522 147.32 136.552 147.498 136.414C147.678 136.275 147.747 138.416 147.713 138.946C147.688 139.328 149.352 139.305 147.889 133.16C147.572 131.817 147.995 131.816 147.995 131.816C148.244 132.473 149.186 134.522 149.836 136.018L149.843 136.023C150.117 136.651 150.577 137.026 150.735 136.923C150.895 136.821 151.341 136.888 151.341 136.888C151.341 136.888 150.93 137.116 150.735 137.503C150.654 137.662 150.429 137.914 150.194 138.152V138.15ZM156.995 136.542C156.5 136.339 153.797 136.886 152.752 134.961C151.704 133.037 151.647 132.88 151.066 132.261C150.014 131.143 149.781 129.812 148.941 128.636C148.941 128.636 149.554 133.449 151.031 134.822C152.505 136.197 152.349 136.988 154.226 137.713C156.02 138.242 157.943 138.067 158.541 137.608C159.139 137.151 159.045 137.151 159.325 136.587C159.611 136.025 159.545 135.78 159.545 135.78C159.545 135.78 158.067 137.081 156.995 136.541V136.542ZM143.739 113.188C143.739 113.188 143.808 123.604 142.034 128.529C140.441 132.955 137.861 137.805 138.036 142.568C138.036 142.568 135.992 138.733 136.537 135.636C136.845 133.879 138.269 130.931 136.509 126.207C136.509 126.207 138.998 128.494 138.861 130.604C138.725 132.715 138.488 133.948 138.488 133.948C138.488 133.948 140.466 130.359 139.85 128.422C139.233 126.487 139.507 126.629 139.44 124.271C139.371 121.914 139.645 121.879 139.509 120.259C139.373 118.642 139.101 117.902 139.101 117.902C139.101 117.902 138.557 120.047 138.352 121.912C138.147 123.778 138.182 123.778 138.182 123.778C138.182 123.778 137.295 121.455 137.362 116.81C137.431 112.166 137.362 109.423 137.362 109.423C137.362 109.423 136.032 115.19 136.373 118.536C136.715 121.879 136.781 122.548 136.781 122.548C136.781 122.548 135.622 123.672 135.145 119.593C134.668 115.512 134.463 112.591 134.463 112.591C134.463 112.591 133.778 119.24 133.813 121.527C133.846 123.814 133.064 126.172 133.097 127.545C133.131 128.916 133.131 129.198 133.131 129.198C133.131 129.198 130.505 126.981 130.438 120.719C130.369 114.456 130.949 112.132 131.29 106.258C131.632 100.38 131.663 97.9897 132.961 97.3924C134.258 96.7934 135.331 98.295 135.978 98.1882C136.628 98.0831 136.406 99.1842 136.168 100.944C135.928 102.703 135.588 108.474 135.588 108.474C135.775 107.217 137.648 99.7031 137.765 97.9763C137.831 97.057 138.827 97.3206 138.998 96.8618C139.17 96.4047 139.645 95.9476 140.703 96.1928C141.762 96.4397 141.488 96.0877 142.46 95.9809C143.435 95.8775 143.979 95.5255 143.671 96.2629C143.366 97.002 141.488 107.539 141.488 110.354C141.488 113.168 141.458 114.119 141.488 114.295C141.525 114.471 141.286 111.902 142.376 108.946C143.465 105.991 143.23 105.779 143.841 104.198C144.454 102.613 144.355 102.121 144.762 101.135C145.17 100.15 145.17 100.115 145.17 100.115C145.17 100.115 145.58 102.226 144.967 104.62C144.353 107.014 143.636 107.716 143.463 109.79C143.295 111.865 143.737 113.185 143.737 113.185L143.739 113.188ZM103.75 102.473C103.75 102.473 104.316 103.035 105.557 103.422C106.799 103.811 107.471 104.056 107.471 104.056C107.471 104.056 105.591 106.131 105.168 107.363C104.741 108.594 104.141 109.228 104.141 109.228C104.437 105.816 105.28 105.514 103.75 102.473ZM98.3863 419.518C101.292 423.034 104.198 424.233 104.198 424.233C104.198 424.233 104.128 424.233 103.135 421.978C102.142 419.729 103.489 414.66 102.072 411.14C100.652 407.621 99.5202 406.076 98.6719 395.589C97.8219 385.105 98.5996 373.703 99.3807 363.782C100.162 353.858 100.795 351.679 102.109 347.949C103.419 344.217 102.426 339.959 102.426 339.959C102.426 339.959 102.283 340.349 102.003 341.262C101.717 342.176 101.4 342.32 100.373 344.183C99.3471 346.049 99.2716 349.178 99.2716 349.178C97.6606 344.389 100.6 341.859 101.543 339.397C102.668 336.456 102.32 335.176 101.331 331.234C100.337 327.295 101.116 318.287 97.15 298.722C93.1807 279.161 91.4824 249.183 91.4824 249.183C91.4824 249.183 89.1055 252.385 89.9572 260.408C90.8071 268.431 88.9644 273.356 90.1 278.141C90.7282 280.796 76.1595 277.808 86.769 249.712C85.7325 250.987 84.2174 253.489 82.6401 256.444C82.1714 261.042 81.8136 264.26 81.6389 265.15C81.2223 267.322 79.2032 268.406 77.0699 268.645C72.8167 280.435 70.6229 295.289 71.1823 297.915C75.6236 291.241 75.3784 280.025 77.9837 277.929C77.9837 277.929 77.1321 285.812 75.3616 292.217C73.5911 298.62 72.6689 306.363 71.0412 316.565C69.4118 326.767 68.0663 336.969 67.003 338.731C66.8266 339.021 73.9942 323.264 74.8341 313C75.3431 306.77 81.6675 291.093 81.6675 291.093C81.6675 291.093 77.982 310.372 79.7542 312.413C81.528 314.451 84.807 314.246 82.467 318.958C80.1271 323.672 76.4249 334.37 72.1734 341.195C67.9235 348.021 65.088 350.555 63.4587 352.735C61.8293 354.918 68.2763 350.483 73.8027 343.024C79.3309 335.565 78.4087 333.736 80.7453 329.722C83.0818 325.711 84.5718 322.828 84.5718 322.828C83.4363 327.34 82.7896 328.764 85.5646 333.95C86.7656 336.199 87.3216 335.565 84.4156 341.334C81.5129 347.105 75.4288 360.336 72.1717 370.891C68.9129 381.445 68.7365 386.722 71.1084 392.426C73.4819 398.123 71.8172 378.997 76.3526 369.06C80.8847 359.124 80.9603 358.788 85.0657 349.781C89.1761 340.772 90.3116 338.237 90.3116 338.237C90.3116 338.237 89.3172 346.052 87.335 352.592C85.3529 359.135 82.6602 363.151 83.7924 367.232C84.9246 371.313 85.919 380.25 88.1161 385.669C90.3116 391.084 91.0222 395.591 91.5882 399.106C92.1543 402.629 91.4455 408.469 91.4455 408.469C91.6454 404.581 86.8983 387.107 84.3585 382.923C85.7342 387.963 83.6798 400.824 85.7762 405.793C87.6172 410.155 88.5394 411.494 89.6027 412.336C90.666 413.184 88.0439 409.945 87.6172 407.555C87.1939 405.162 87.1939 403.682 87.4745 403.4C87.76 403.118 88.0439 407.973 88.9644 409.173C89.8849 410.366 92.0821 411.493 92.7187 414.588C93.3571 417.686 93.142 419.165 94.8437 419.517C96.5453 419.865 97.6086 418.389 98.3863 419.517V419.518ZM8.33504 388.2C8.33504 388.2 3.94242 384.471 4.72183 382.219C5.50125 379.97 3.51743 381.094 2.94967 377.716C2.38358 374.339 1.39083 372.158 2.38358 370.891C3.37633 369.624 5.21737 370.328 11.4544 367.509C17.688 364.698 17.7586 364.626 26.4716 358.575C35.188 352.524 36.8174 350.553 36.8174 350.553C36.8174 350.553 37.6673 356.112 30.0865 360.897C22.5057 365.68 20.3085 369.129 17.122 371.243C13.9337 373.353 10.1761 377.083 8.9028 377.225C7.62785 377.364 10.8513 377.399 12.6554 375.887C14.4629 374.374 15.3145 374.129 15.5614 373.987C15.8101 373.845 13.6146 375.287 13.6835 378.56C13.7557 381.832 14.0732 383.38 11.3099 383.732C8.54837 384.084 7.94533 384.189 7.94533 384.189C7.94533 384.189 6.98785 385.669 8.33504 388.2ZM12.1952 364.137C12.1952 364.137 10.2819 361.251 12.1952 358.998C14.1084 356.746 15.5967 355.62 17.4394 352.735C19.2805 349.849 19.5644 347.844 20.6613 347.949C21.7598 348.056 22.4334 348.476 23.0701 348.476C23.7067 348.476 22.8937 349.39 21.2643 350.446L19.6349 351.501C19.6349 351.501 23.6025 350.867 28.2455 347.352C32.8833 343.831 33.488 343.409 35.6466 341.159C37.8068 338.906 38.6231 338.025 38.6231 338.025C38.6231 338.025 36.8862 343.374 31.6084 347.597C26.3288 351.818 20.0246 354.597 18.6069 355.829C17.1875 357.06 16.6583 357.272 16.6583 357.272C16.6583 357.272 20.589 356.144 22.929 354.704C25.2655 353.261 25.2303 353.014 27.0024 351.853C28.7729 350.693 29.4465 350.376 29.4465 350.376C29.4465 350.376 24.4878 356.182 20.8024 357.73C17.1186 359.279 13.6112 360.613 13.1157 361.317C12.6202 362.022 12.1599 362.374 12.1952 364.135V364.137ZM118.787 241.726C118.787 241.726 116.38 261.149 111.987 276.208C107.595 291.268 105.893 298.867 104.9 302.669L103.908 306.467C103.908 306.467 111.277 296.193 113.402 290.282C115.527 284.371 117.794 280.852 117.794 280.852C117.794 280.852 112.552 286.481 112.127 288.171C111.7 289.86 112.409 280.712 115.953 276.348C119.498 271.985 119.777 267.762 123.18 260.161C126.58 252.562 126.864 249.465 126.864 249.465C126.864 249.465 122.755 257.417 120.274 261.921C117.794 266.423 116.802 267.409 116.802 267.409C116.802 267.409 120.771 248.691 118.786 241.723L118.787 241.726ZM131.256 262.133C131.256 262.133 131.822 282.119 130.193 289.086C128.564 296.049 129.061 299.993 129.272 302.878C129.484 305.764 129.345 305.833 129.345 305.833C129.345 305.833 127.574 301.402 127.468 298.442C127.362 295.489 126.864 293.835 126.864 293.835C126.864 293.835 125.34 297.739 126.261 300.976C127.181 304.214 129.625 310.9 128.071 320.047C126.509 329.198 126.088 333.629 124.456 335.953C122.827 338.277 119.355 342.989 116.592 351.644C113.829 360.301 113.829 361.005 113.829 361.005C113.829 361.005 111.557 355.235 114.606 349.252C117.652 343.269 117.368 343.059 119.919 340.174C122.471 337.288 122.011 336.479 121.124 336.374C120.237 336.269 116.026 338.629 115.777 341.23C115.528 343.833 115.634 344.747 115.634 344.747C115.634 344.747 112.019 341.723 113.437 339.188C116.514 333.691 120.082 337.183 120.237 326.594C120.237 326.594 118.29 332.752 116.341 333.945C114.395 335.144 112.372 337.607 112.16 338.382C111.949 339.155 111.949 339.332 111.949 339.332C111.949 339.332 110.971 337.206 111.898 335.254C111.924 335.229 113.031 334.228 113.734 331.24C114.442 328.212 117.63 325.398 117.773 322.301C117.912 319.206 118.265 316.248 118.265 316.248C118.265 316.248 117.49 318.544 116.778 321.811C116.068 325.076 112.606 326.117 112.139 331.602C111.452 330.938 110.521 329.547 111.062 327.159C111.877 323.572 109.893 327.089 112.303 316.11C114.712 305.132 115.349 305.416 116.41 300.911C117.474 296.406 117.474 294.51 117.474 294.51C117.474 294.51 119.459 298.307 118.821 300.701C118.184 303.092 118.04 306.822 118.184 307.526C118.324 308.228 119.316 299.011 120.879 296.548C122.434 294.086 123.286 293.592 123.355 288.455C123.428 283.318 122.859 280.432 122.859 280.432C122.859 280.432 124.702 283.39 124.772 286.698C124.845 290.005 125.763 291.128 125.763 291.128C125.763 291.128 125.409 285.921 126.613 280.784C127.818 275.647 126.331 272.762 127.179 267.976C128.031 263.191 129.02 259.674 129.447 255.24C129.874 250.807 130.085 249.679 130.085 249.679L131.255 262.135L131.256 262.133ZM69.8133 266.821C63.373 275.167 55.6259 292.556 54.0385 303.584C52.3385 315.406 54.8884 334.544 53.1885 340.455C51.4886 346.366 50.9225 346.789 50.9225 346.789C50.9225 346.789 58.0078 334.685 57.1561 324.832C56.3062 314.982 58.4328 306.395 62.5415 299.218C66.6502 292.04 67.5724 289.578 67.6413 287.819C67.7135 286.058 67.7135 284.791 67.7135 284.791C67.7135 284.791 66.0136 289.86 63.1781 293.377C60.3444 296.897 58.0783 301.258 58.0783 301.258C58.0783 301.258 58.8561 292.811 63.1093 285.779C66.2118 280.64 69.8418 274.421 73.8061 268.343C73.2803 268.171 72.81 267.941 72.4304 267.654L69.8149 266.82L69.8133 266.821ZM37.7446 404.817C37.7446 404.817 35.9036 413.752 39.0901 419.03C42.28 424.307 44.1211 425.645 46.6004 424.8C49.0814 423.954 46.0343 421.142 47.5932 417.483C49.152 413.823 53.333 412.695 52.6946 418.045C52.058 423.391 51.7036 425.433 55.599 423.814C59.4961 422.199 64.3137 421.562 61.9754 424.518C59.6372 427.471 52.8357 430.498 52.4091 433.734C51.9841 436.973 53.6857 439.153 54.1812 439.435C54.6768 439.717 50.9225 435.496 57.015 432.048C63.1093 428.599 65.4475 424.375 64.5959 421.56C63.7476 418.746 61.4799 418.322 60.0621 416.777C58.6444 415.226 57.5828 414.385 57.5828 414.385C57.5828 414.385 59.0005 418.112 60.4149 418.888C61.8343 419.662 62.1165 420.364 62.1165 420.364C62.1165 420.364 58.8561 418.888 56.7311 420.226C54.6062 421.56 53.8957 420.226 54.4651 417.198C55.0312 414.173 55.8829 413.893 52.4091 411.006C48.9387 408.12 46.4593 407.558 45.1827 401.295C43.9094 395.032 43.1283 393.765 52.0546 378.567C60.9827 363.368 62.9665 357.595 62.9665 357.595C62.9665 357.595 48.5137 381.38 43.8372 388.697C39.1607 396.016 41.8517 402.841 43.6961 407.414C45.5371 411.991 46.6004 413.257 46.6004 413.257C46.6004 413.257 44.8282 415.226 45.7504 418.816C46.671 422.406 47.0489 423.878 45.2549 424.165C43.4609 424.452 36.3974 416.425 37.7446 404.813V404.817ZM14.221 392.219C14.221 392.219 12.7327 396.512 15.4959 397.709C18.2592 398.906 19.7475 396.934 23.9267 400.033C28.1077 403.128 30.1621 405.379 31.2943 408.334C32.4281 411.29 30.8693 404.044 28.9577 401.86C27.0444 399.683 28.0372 398.625 29.3121 396.021C30.5871 393.417 28.7444 388.492 31.1532 384.481C33.5636 380.47 33.9181 377.938 34.1297 372.449C34.3431 366.958 36.1841 359.991 36.1841 359.991C36.1841 359.991 32.8548 366.468 32.0754 371.182C31.2959 375.897 31.0843 379.624 28.8871 382.863C26.6917 386.101 29.1005 389.76 27.3988 392.504C25.6989 395.247 23.7856 395.038 23.0062 396.095C22.2268 397.152 17.9064 398.067 16.4165 396.305C14.9282 394.546 17.0548 393.632 16.7709 392.294C16.4887 390.956 15.3548 390.817 18.5414 389.127C21.7296 387.437 23.9267 385.819 23.9267 385.819C23.9267 385.819 19.5341 387.579 16.3476 388.637C13.1594 389.693 13.1594 390.534 11.5283 389.62C9.90059 388.705 9.75613 388.847 9.75613 388.847C9.75613 388.847 10.9622 390.609 12.5899 391.418C14.2193 392.224 14.3268 391.733 14.2193 392.224L14.221 392.219ZM98.3208 447.038C98.3208 447.038 96.762 446.195 95.7692 445.49C94.7765 444.786 94.2104 443.871 95.3089 442.919C96.4075 441.969 99.3135 439.192 101.652 437.608C103.988 436.023 106.08 434.864 107.887 434.055C109.691 433.244 110.545 433.563 110.899 434.16C111.255 434.757 113.269 437.433 114.831 438.98C116.387 440.528 118.87 443.204 120.144 444.257C121.419 445.315 122.269 445.101 121.382 445.805C120.499 446.509 121.843 446.756 122.515 446.93C123.19 447.108 124.005 448.129 122.62 448.69C121.24 449.252 119.152 449.781 118.443 448.269C117.734 446.756 117.417 445.241 116.318 443.833C115.221 442.427 114.793 441.232 114.371 440.95C113.944 440.67 115.043 441.651 114.191 441.831C113.345 442.005 114.017 442.251 114.9 443.589C115.787 444.928 117.663 447.952 117.734 448.62C117.806 449.29 116.53 450.345 115.503 450.273C114.477 450.205 113.874 449.042 113.412 447.777C112.952 446.511 111.853 444.397 111.499 443.448C111.144 442.498 111.216 441.971 111.144 441.758C111.072 441.547 110.696 442.443 109.869 442.183C109.045 441.924 107.887 441.831 108.665 442.462C109.443 443.099 111.038 445.171 111.781 446.719C112.525 448.271 113.41 449.567 112.208 450.205C111.003 450.838 109.231 451.049 108.808 450.099C108.381 449.148 109.086 448.938 107.887 446.544C106.679 444.153 106.152 443.204 105.51 442.852C104.875 442.498 104.944 443.556 105.51 444.048C106.076 444.539 106.716 445.386 107.035 447.11C107.356 448.833 107.496 449.539 106.718 449.853C105.94 450.168 104.096 450.378 103.955 449.112C103.812 447.845 103.955 447.176 102.891 445.558C101.828 443.94 101.58 443.695 101.087 443.695C100.595 443.695 99.9855 444.047 100.839 444.822C101.687 445.595 103.103 447.213 102.609 448.196C102.115 449.185 101.474 449.29 100.41 448.937C99.3505 448.585 98.7122 447.812 98.3225 447.036L98.3208 447.038ZM47.7326 308.656C47.7326 308.656 41.9239 314.708 42.2061 330.611C42.49 346.514 42.065 359.04 39.6562 371.142C37.2474 383.248 35.6886 386.059 35.6886 386.059C35.6886 386.059 41.3561 378.038 42.915 365.093C44.4738 352.143 45.6077 347.919 47.8737 342.994C50.1414 338.069 51.7002 338.775 50.1414 333.002C48.5825 327.231 48.7236 324.276 48.7236 324.276C48.7236 324.276 47.5915 327.305 47.5915 330.047C47.5915 332.79 48.0165 335.82 47.0926 337.648C46.1721 339.477 44.8988 341.869 44.8988 341.869C44.8988 341.869 44.5427 319.562 47.7309 308.654L47.7326 308.656ZM55.5503 262.278C57.1309 267.354 55.9921 273.089 55.4579 279.664C55.2445 282.269 52.9768 288.742 52.9768 288.742C52.9768 288.742 56.4473 283.323 57.015 278.959C57.5828 274.596 58.1489 272.557 58.5755 269.531C59.0005 266.504 59.8421 263.645 59.8421 263.645L55.5519 262.277L55.5503 262.278ZM75.6488 349.824C75.6488 349.824 74.09 357.987 69.1296 361.646C64.1709 365.305 60.4855 371.778 56.2339 380.364C51.9824 388.947 49.4308 394.449 50.988 398.527C52.5485 402.599 52.9752 403.587 52.9752 403.587C52.9752 403.587 46.4559 398.097 48.2987 392.748C50.1414 387.399 58.5016 369.809 62.8943 363.757C67.2869 357.704 71.3251 351.865 74.3 347.078C77.2748 342.291 79.4014 338.142 79.4014 338.142C79.4014 338.142 75.9999 346.024 73.7322 350.034C71.4645 354.045 70.8984 356.508 69.5512 358.054C68.2057 359.604 67.7102 359.954 67.7102 359.954C67.7102 359.954 72.4236 357.42 75.6471 349.822L75.6488 349.824ZM103.812 427.473C103.812 427.473 93.3251 427.897 86.8076 420.72C80.2884 413.542 80.0078 408.332 79.4384 400.874C78.8723 393.415 80.4311 383.709 80.4311 383.709C80.4311 383.709 76.8885 393.979 77.1724 399.608C77.4546 405.237 76.7491 407.771 77.7385 409.461C78.7295 411.151 75.6135 405.943 74.6208 401.86C73.628 397.78 73.628 397.216 73.628 397.216C73.628 397.216 71.362 406.365 74.1958 409.321C77.0296 412.276 77.1707 412.98 79.1545 416.781C81.1383 420.581 84.256 425.364 94.034 427.473C103.812 429.584 106.431 428.953 107.781 429.445C109.125 429.936 105.441 427.401 103.812 427.473ZM58.3958 440.423C58.3958 440.423 61.584 442.533 63.1429 438.803C64.7034 435.073 66.0489 432.468 70.7959 434.512C75.5413 436.554 78.8723 434.582 79.2267 434.582C79.5812 434.582 76.8885 436.903 74.1958 437.395C71.5031 437.889 66.3311 436.833 66.3311 436.833C66.3311 436.833 67.3238 440.281 70.937 441.195C74.5502 442.11 74.903 442.393 74.8341 443.167C74.7619 443.94 74.6208 444.575 74.6208 444.575C74.6208 444.575 76.8885 440.423 79.084 439.013C81.2828 437.608 85.3882 436.554 89.7119 436.34C94.034 436.127 96.2295 435.426 96.2295 435.426C96.2295 435.426 92.2635 439.365 89.0719 441.479C85.8871 443.59 86.0299 443.518 83.7622 444.29C81.4945 445.066 91.1313 443.589 93.4679 441.125C95.8045 438.659 97.5061 437.183 99.9855 435.144C102.465 433.102 103.103 432.61 103.103 432.61C103.103 432.61 100.128 432.61 94.034 433.668C87.9398 434.72 85.8871 434.44 82.9088 435.354C79.9356 436.269 79.6517 436.412 79.6517 436.412C79.6517 436.412 82.7677 434.512 83.9016 434.23L85.0337 433.945C85.0337 433.945 77.9501 434.439 75.1163 432.61C72.2809 430.781 70.9354 432.468 70.7943 427.471C70.6515 422.475 72.4942 424.588 69.9443 419.098C67.3927 413.607 63.7795 408.966 63.7795 408.966C63.7795 408.966 69.306 418.182 69.3782 421.349C69.4488 424.517 68.5988 426.836 69.2354 429.23C69.8737 431.621 70.4415 432.465 70.4415 432.465C70.4415 432.465 66.615 429.23 64.3489 432.889C62.0812 436.551 62.0947 440.363 58.3958 440.418V440.423ZM66.3328 376.737C66.3328 376.737 62.9329 382.931 63.074 392.501C63.2151 402.072 65.6256 404.883 68.7432 409.812C71.8609 414.737 71.8609 415.161 71.8609 415.161C71.8609 415.161 69.3093 407.98 67.3272 402.072C65.3434 396.158 64.3506 387.291 66.3344 376.735L66.3328 376.737ZM58.2564 387.786C58.2564 387.786 54.9959 393.697 54.7121 397.359C54.4299 401.018 55.2076 400.384 54.7121 402.353C54.2165 404.325 54.2165 404.396 54.2165 404.396C54.2165 404.396 55.562 400.876 55.562 400.032C55.562 399.188 56.5548 404.043 56.4842 407.419C56.412 410.799 60.3813 412.838 62.224 415.302C64.0651 417.765 64.2767 418.187 64.2767 418.187C64.2767 418.187 63.8517 414.739 61.2296 411.992C58.6091 409.248 57.9708 408.896 57.6164 405.521C57.2636 402.141 57.3359 401.789 57.2636 399.892C57.1914 397.988 57.3359 397.357 57.6164 396.16C57.9003 394.967 57.9725 394.753 57.9725 394.753C57.9725 394.753 56.627 395.667 56.3078 396.406C55.9887 397.147 55.9181 397.463 55.9181 397.463C55.9181 397.463 55.9181 395.739 56.4859 394.615C57.052 393.487 57.9742 389.509 58.2581 387.786H58.2564ZM103.706 353.483C103.706 353.483 102.287 366.147 103.988 371.214C105.69 376.278 107.392 380.727 107.954 382.05C108.346 382.971 107.731 384.408 106.953 384.97C105.839 385.777 105.759 387.693 105.865 388.347C106.043 389.434 103.174 388.206 102.535 386.098C101.899 383.984 101.685 383.422 101.685 383.422C101.685 383.422 103.101 386.66 104.022 386.588C104.942 386.516 103.953 385.602 104.733 384.62C105.51 383.632 106.397 383.527 105.69 381.486C104.981 379.448 101.509 375.293 101.509 367.484C101.509 359.674 102.641 356.996 103.706 353.481V353.483ZM100.377 384.866C100.377 384.866 102.498 389.299 104.129 391.129C105.761 392.958 105.618 393.24 105.692 394.368C105.761 395.492 104.628 395.14 102.928 392.254C101.227 389.368 100.872 388.103 100.377 384.866ZM101.65 399.997C101.65 399.997 101.472 403.34 103.389 404.498C105.299 405.661 105.69 404.955 106.611 405.484C107.531 406.013 107.812 404.745 107.921 404.498C108.027 404.254 104.981 404.36 104.094 403.339C103.209 402.316 102.819 401.754 102.819 401.754C102.819 401.754 101.734 401.417 101.65 399.995V399.997ZM106.046 416.04C106.046 416.04 106.755 414.982 107.956 413.719C109.164 412.449 110.153 412.029 109.375 410.481C108.594 408.933 108.594 408.3 108.594 408.3C108.594 408.3 108.418 409.6 108.628 410.481C108.843 411.362 108.945 411.767 108.522 411.924C108.106 412.082 108.106 412.358 107.639 412.877C107.812 412.409 107.887 412.241 107.921 411.43C107.954 410.623 108.381 411.362 107.744 410.306C107.108 409.248 107.108 409.673 107.108 408.934C107.108 408.195 107.18 407.316 107.18 407.316C107.18 407.316 105.618 408.127 106.011 409.43C106.399 410.731 106.968 412.102 106.543 413.017C106.117 413.931 105.762 415.304 106.049 416.041L106.046 416.04ZM108.759 417.835C109.733 417.146 109.384 415.905 110.078 416.457C110.771 417.011 114.035 419.902 115.423 420.663C118.384 422.281 118.055 422.737 117.905 423.472C117.707 423.377 115.868 422.294 115.999 422.523C116.093 422.683 117.568 423.663 117.889 423.938C118.651 424.593 119.518 424.902 119.624 425.558C119.728 426.213 119.138 426.969 118.478 426.696C117.82 426.422 116.948 425.386 116.083 424.662C115.214 423.938 116.291 424.764 115.181 423.973C114.07 423.179 113.551 422.73 113.029 422.697C112.508 422.663 112.854 422.561 114.143 423.799C115.424 425.039 115.216 424.971 116.293 425.903C117.366 426.831 118.34 427.176 118.199 428.039C118.062 428.901 117.403 429.659 116.36 429.487C115.318 429.313 113.756 428.726 112.233 427.485C110.706 426.245 110.565 425.211 109.56 424.455C108.556 423.698 107.373 423.144 107.304 422.214C107.143 420.046 106.508 419.437 108.761 417.837L108.759 417.835ZM98.178 247.822C98.178 247.822 99.1708 262.177 99.453 271.888C99.7352 281.6 99.7352 281.176 100.162 287.791C100.464 292.528 101.79 303.45 102.005 302.711C102.465 301.126 101.012 290.043 101.865 284.132C102.713 278.221 103.563 275.267 104.415 272.874C105.262 270.48 105.404 270.2 105.404 270.2C105.404 270.2 104.415 276.393 103.99 282.586C103.563 288.779 102.945 294.778 103.458 294.688C103.972 294.598 105.404 276.675 107.812 272.31C110.219 267.949 109.513 267.245 110.929 260.63C112.349 254.015 112.065 251.624 113.34 248.668C114.615 245.713 115.465 242.195 115.75 241.561C116.029 240.93 112.913 244.939 112.135 247.472C111.354 250.006 111.215 250.638 111.354 250.074C111.497 249.512 111.354 246.417 111.781 244.655C112.208 242.897 112.559 241.349 112.559 241.349C112.559 241.349 112.063 241.209 111.354 242.827C110.647 244.444 111.001 243.601 109.868 249.16C108.732 254.721 107.954 259.154 107.034 262.178C106.113 265.205 105.475 266.331 105.048 267.879C104.625 269.427 104.766 265.979 105.614 262.67C106.466 259.364 106.82 260.068 107.316 257.674C107.81 255.281 108.097 253.241 108.097 253.241C108.097 253.241 104.554 261.052 103.704 265.205C102.853 269.356 102.712 270.764 102.572 272.03C102.43 273.296 101.648 274.072 101.365 275.126C101.082 276.183 101.153 273.156 100.871 268.581C100.588 264.007 100.373 262.811 99.9468 256.831C99.5235 250.848 98.2486 248.901 98.1763 247.822H98.178ZM106.605 247.393C106.605 247.393 106.233 251.284 104.894 253.835C103.555 256.386 103.251 258.044 102.636 260.977C102.02 263.91 102.493 267.736 102.493 267.736C102.493 267.736 103.533 260.148 105.448 255.813C107.37 251.477 107.41 248.289 107.781 246.567C108.154 244.846 107.8 242.55 107.8 242.55L106.605 247.395V247.393ZM111.023 301.445C111.023 301.445 107.763 314.954 106.767 320.022C105.777 325.089 106.91 330.578 106.91 330.578C106.91 330.578 107.264 322.838 108.117 318.684C108.964 314.532 113.145 302.147 114.208 298.066C115.271 293.986 115.483 293.493 115.483 293.493C115.483 293.493 112.933 299.615 111.022 301.447L111.023 301.445ZM106.935 401.887C106.935 401.887 108.68 400.803 107.209 399.792C105.74 398.786 105.383 399.083 102.959 396.462C100.531 393.849 99.7419 391.486 99.7419 391.486C99.7419 391.486 100.295 395.454 101.845 397.024C103.394 398.594 105.141 400.027 105.398 400.497C105.656 400.961 105.814 401.075 105.814 401.075C105.814 401.075 104.88 400.456 103.967 399.898C103.053 399.334 102.653 398.811 102.653 398.811C102.653 398.811 103.313 400.554 104.8 401.131C106.29 401.712 106.834 402.396 107.487 402.991C108.144 403.59 108.221 403.647 108.221 403.647C108.221 403.647 108.321 402.469 107.922 402.171C107.528 401.87 107.867 401.497 107.867 401.497C107.867 401.497 107.287 402.037 106.933 401.889L106.935 401.887ZM63.7711 170.355C62.8775 175.961 65.9431 176.788 67.1592 177.487C67.1592 177.487 66.7493 176.725 65.9162 175.178C65.0813 173.63 65.1754 173.208 65.1754 173.208C65.1754 173.208 66.6418 175.355 67.648 177.219C68.6525 179.084 69.1279 179.541 69.1279 179.541C69.1279 179.541 68.3065 175.283 66.8669 173.49C65.4274 171.695 64.2465 170.815 63.7711 170.357V170.355ZM70.801 182.964C70.801 182.964 70.1627 183.809 71.226 184.019C72.2909 184.231 70.8715 185.497 71.5098 185.781C72.1465 186.061 72.9981 185.709 74.7686 185.781C76.5391 185.851 77.8863 185.145 77.248 185.921C76.6097 186.695 74.3419 186.483 73.3492 187.115C72.3581 187.749 72.2876 188.382 73.2787 188.523C74.2714 188.664 75.8302 188.664 83.2666 189.087C90.708 189.509 111.608 188.807 117.348 188.103C123.087 187.401 126.733 186.114 126.733 186.114C126.733 186.114 126.203 185.395 126.239 184.97C126.272 184.548 126.593 184.267 125.849 184.513C125.107 184.76 123.192 184.725 121.774 185.005C120.358 185.287 120.003 185.287 120.003 185.287C120.003 185.287 121.384 184.619 122.874 184.479C124.361 184.339 124.199 183.95 124.875 183.845C125.547 183.739 126.346 183.705 126.452 183.458C126.558 183.213 126.645 183.248 126.645 182.861C126.645 182.474 126.625 182.26 126.591 181.945C126.558 181.63 126.697 181.418 126.452 181.418C126.207 181.418 121.139 182.015 118.55 182.367C115.965 182.719 107.991 183.141 105.796 183.281C103.6 183.422 103.246 183.422 103.246 183.422C103.246 183.422 102.895 184.196 106.367 184.196H111.111C111.111 184.196 108.702 184.828 102.045 185.04C95.3812 185.252 92.6381 185.394 91.5059 185.674C90.3738 185.954 93.0497 185.884 97.2978 186.096C101.548 186.308 104.309 186.096 103.6 186.236C103.046 186.346 98.9776 186.957 94.5279 187.12C93.2983 187.165 90.6392 187.054 89.4129 187.099C83.7454 187.31 82.7879 187.055 82.7711 186.87C82.7526 186.687 87.0915 186.518 88.2236 186.096C89.3592 185.674 88.6503 185.464 89.9253 185.04C91.2002 184.618 91.2355 184.478 93.0765 184.478C94.9176 184.478 98.7139 183.562 98.7139 183.562C98.7139 183.562 84.8255 184.196 79.0134 183.774C73.2064 183.35 70.7959 182.964 70.7959 182.964H70.801ZM90.194 190.495C90.194 190.495 91.3632 190.565 91.9662 190.565C92.5692 190.565 91.9292 193.378 93.1706 197.756C94.412 202.132 93.4914 209.253 95.1191 214.046C96.7485 218.839 96.9635 219.952 96.9635 219.952C96.9635 219.952 97.3163 216.338 96.1824 213.142C95.0469 209.947 94.7664 204.319 94.7664 204.319C94.7664 204.319 96.3219 209.738 98.0235 214.116C99.7251 218.492 102.204 223.779 103.122 228.434C104.042 233.089 104.539 234.143 108.262 236.055C112.359 238.164 116.496 240.927 120.48 233.991C119.637 224.975 121.174 222.294 121.05 219.396C120.86 215.015 119.634 214.812 120.623 211.128C121.616 207.446 121.401 206.752 121.401 206.752C121.401 206.752 122.535 209.949 122.041 211.894C121.544 213.839 121.755 215.784 122.11 216.827C122.466 217.868 122.466 218.008 122.466 218.008C122.466 218.008 123.601 213.909 123.175 208.075C122.751 202.239 122.323 201.615 122.891 198C123.457 194.388 123.457 193.624 123.457 193.624V191.957C123.457 191.957 124.593 194.528 124.593 199.321C124.593 204.114 125.936 207.031 125.016 212.59C124.095 218.147 123.6 223.636 123.245 226.901C122.891 230.167 123.318 230.097 123.6 231.903C123.884 233.709 124.29 234.824 124.767 234.842C125.246 234.862 126.081 234.82 127.922 234.195C131.3 233.047 134.162 234.238 133.732 237.321C133.732 237.321 133.657 234.333 130.188 235.236C126.716 236.138 126.079 237.46 124.52 236.764C122.961 236.068 123.242 235.096 122.464 234.68C121.687 234.263 121.826 234.889 120.622 236.417C119.417 237.945 117.081 240.932 111.413 239.405C105.745 237.877 104.484 235.223 102.769 236.349C101.035 237.487 105.23 240.234 99.0817 241.559C96.6326 242.088 95.0435 242.53 93.7686 241.421C92.4936 240.308 90.9533 240.308 90.7416 241.629C90.5266 242.949 90.6509 243.853 88.741 243.925C86.8244 243.995 84.6995 243.297 84.6995 243.297C84.6995 243.297 89.0199 243.993 89.5876 242.465C90.105 241.075 89.7052 240.131 91.7159 239.338C91.7159 239.338 93.4142 237.046 91.3615 231.142C89.3071 225.236 87.1116 219.934 87.8894 216.946C88.6671 213.959 89.2282 221.312 89.8026 205.411C90.3906 207.009 91.432 217.248 91.5731 221.347C91.7159 225.444 92.4936 227.947 92.7809 229.752C93.0597 231.559 93.2747 227.738 92.9203 225.793C92.5659 223.848 94.5497 228.919 94.4791 232.81C94.4103 236.699 94.4791 239.757 95.0452 240.383C95.6113 241.007 97.4523 241.147 99.2984 240.244C101.139 239.34 101.847 240.029 101.496 238.437C101.062 236.482 101.496 235.963 102.381 235.213C102.381 234.725 101.212 231.28 97.5279 225.237C93.8442 219.195 93.3453 218.429 92.9203 212.177C92.4936 205.924 92.7809 209.398 92.0703 203.077C91.3615 196.757 91.1129 193.824 89.6263 192.853C88.1397 191.878 87.1469 190.527 87.3418 190.304C87.5349 190.08 89.2701 190.242 89.6632 190.607C90.0512 190.973 90.6711 191.51 90.9197 192.067C91.1683 192.621 91.2741 192.674 91.2741 192.674C91.2741 192.674 91.0793 191.842 90.8643 191.388C90.6526 190.938 89.9085 190.59 90.1923 190.502L90.194 190.495ZM94.1079 190.544C94.1079 190.544 95.8431 190.377 96.3756 190.964C96.9081 191.551 96.4109 190.482 97.402 192.034C98.3947 193.585 98.7491 194.104 98.7491 194.104C98.7491 194.104 98.6618 193.452 98.1646 192.552C97.6674 191.657 97.1382 190.309 97.4557 190.309C97.7732 190.309 98.7693 190.811 99.1573 190.744C99.5454 190.674 100.38 194.431 102.01 197.641C103.636 200.851 104.734 203.287 107.64 209.635C110.546 215.986 109.98 217.159 110.828 218.607C111.678 220.055 109.127 218.746 107.571 213.017C106.009 207.287 103.956 205.701 103.103 203.906C102.253 202.111 101.828 202.042 101.828 202.042C101.828 202.042 103.669 206.111 104.877 208.457C106.081 210.804 105.443 211.772 105.443 211.772C105.443 211.772 103.814 207.493 101.689 205.492C99.5655 203.49 100.342 202.593 99.4933 200.659C98.6433 198.727 98.9977 197.07 97.8656 195.552C96.7267 194.032 94.6051 192.474 94.1079 190.542V190.544ZM125.516 188.789C125.516 188.789 126.188 189.738 128.347 192.728C130.51 195.721 130.793 197.372 131.041 199.344C131.29 201.313 130.687 202.157 130.865 203.495C131.041 204.832 131.11 204.973 131.11 204.973C131.11 204.973 128.668 202.404 128.065 199.942C127.463 197.477 126.793 196.88 126.793 196.88C126.793 196.88 127.994 202.614 128.915 209.37C129.838 216.125 129.13 218.869 130.05 220.489C130.971 222.109 130.971 224.467 131.255 227.139C131.54 229.814 132.496 230.833 132.496 230.833C132.496 230.833 130.19 231.185 129.911 227.173C129.625 223.162 128.209 219.643 128.209 219.643C128.209 219.643 128.281 224.57 128.066 226.118C127.855 227.667 127.216 230.271 127.216 230.271C127.216 230.271 127.571 226.33 127.005 223.234C126.439 220.136 125.94 219.643 126.722 216.831C127.5 214.014 127.784 208.033 127.005 203.46C126.224 198.886 125.873 194.488 125.481 193.011C125.091 191.535 124.809 190.584 124.809 190.584C124.809 190.584 126.474 193.644 127.322 195.509C128.176 197.374 129.024 197.689 129.519 198.992C130.017 200.294 130.05 200.471 130.05 200.471C130.05 200.471 129.944 197.584 128.031 194.069C126.118 190.549 125.479 189.354 125.518 188.79L125.516 188.789ZM132.696 225.629C132.75 225.753 133.492 227.231 133.883 228.11C134.273 228.99 134.008 229.887 133.722 230.184C133.44 230.484 133.069 230.696 133.069 230.696C133.069 230.696 133.811 229.659 133.405 228.516C132.995 227.373 132.696 225.629 132.696 225.629ZM121.913 188.945C121.913 188.945 122.765 193.872 121.204 199.923C119.649 205.974 118.302 209.635 117.947 212.942C117.593 216.25 117.097 219.345 117.097 219.345C117.097 219.345 115.678 216.39 116.388 212.942C117.097 209.493 118.087 206.96 118.161 205.622C118.23 204.286 118.3 204.006 118.3 204.006C118.3 204.006 116.76 205.764 117.025 207.524C117.289 209.285 115.678 210.849 115.411 210.621C115.149 210.391 116.244 205.694 116.531 203.092C116.812 200.489 117.452 200.417 118.653 199.221C119.859 198.025 120.143 198.305 120.354 196.476C120.569 194.648 121.016 193.725 120.742 194.102C120.472 194.479 120.354 195.844 119.293 197.04C118.228 198.237 117.946 198.605 117.663 198.377C117.38 198.148 118.584 195.844 118.372 193.944C118.161 192.044 118.653 192.115 118.3 190.919C117.946 189.721 117.625 189.546 118.085 189.404C118.545 189.264 119.254 189.299 119.503 189.229C119.751 189.157 119.963 190.742 119.963 191.62C119.963 192.497 119.785 193.697 119.785 193.697C119.785 193.697 120.318 193.592 120.494 192.149C120.672 190.706 120.778 190.917 120.845 190.037C120.921 189.157 120.882 188.735 120.882 188.735L121.908 188.945H121.913ZM100.589 190.424C100.589 190.424 102.645 192.886 103.211 194.646C103.777 196.406 102.856 196.335 104.628 199.081C106.395 201.824 106.395 201.754 108.169 204.498C109.941 207.241 111.075 210.481 111.851 211.043C112.633 211.605 112.137 208.791 113.269 207.876C114.401 206.962 115.888 203.092 115.888 203.092C115.888 203.092 114.756 204.85 113.125 206.118C111.495 207.383 111.504 206.587 111.001 205.976C110.498 205.367 109.797 204.359 109.443 203.655C109.088 202.951 107.39 200.629 107.39 200.629C107.39 200.629 107.813 200.839 109.3 201.543C110.788 202.246 111.213 202.634 112.278 202.74C113.34 202.845 114.191 201.543 114.9 200.769C115.609 199.995 116.101 200.277 116.671 198.517C117.237 196.757 117.682 193.24 117.38 192.853C117.079 192.466 116.953 195.983 115.466 198.025C113.98 200.065 113.269 200.345 111.213 199.361C109.16 198.375 109.088 197.883 108.095 197.883C107.103 197.883 106.891 196.969 106.679 196.335C106.468 195.701 105.332 194.152 105.332 194.152C105.332 194.152 105.473 193.872 108.378 194.575C111.284 195.279 110.079 195.419 111 195.948C111.92 196.475 111.033 195.138 112.169 194.715C113.301 194.293 113.125 194.328 114.082 193.87C115.038 193.413 115.32 192.955 115.32 192.955C115.32 192.955 113.585 193.73 112.52 193.835C111.458 193.941 111.033 193.695 111.033 193.695C111.033 193.695 112.98 192.639 113.976 192.357C114.966 192.077 114.754 191.445 115.392 191.126C116.029 190.809 116.528 190.07 116.528 190.07C116.528 190.07 115.638 189.93 114.472 190.317C113.303 190.704 112.701 189.718 111.92 190.317C111.139 190.916 111.599 191.513 110.467 191.513C109.335 191.513 109.123 191.089 108.52 191.126C107.916 191.161 107.667 190.916 107.101 190.634C106.535 190.352 106.286 190.035 106.18 190.352C106.075 190.669 106.392 191.762 105.472 191.55C104.551 191.338 104.339 191.55 103.877 191.268C103.417 190.988 102.461 190.319 100.583 190.424H100.589ZM61.8377 162.891C61.8377 162.891 63.0421 165.917 65.8759 167.817C69.0003 169.913 72.3514 173.498 74.0228 168.591C75.5816 164.017 75.0861 163.383 75.5111 160.852C75.9361 158.319 77.3538 156.487 77.3538 156.487C77.3538 156.487 77.4949 157.263 76.6432 161.766C75.795 166.271 76.786 168.451 74.3772 170.844C71.9684 173.235 71.1873 172.392 71.1873 173.516C71.1873 174.641 71.399 177.529 71.8945 178.161C72.39 178.795 73.8935 178.458 74.4461 178.303C74.9987 178.148 75.0139 178.231 77.0665 174.222C79.1226 170.21 80.2548 168.662 81.8136 165.355C83.3724 162.046 84.3652 156.065 85.2857 155.079C86.2096 154.095 85.1463 160.568 84.1502 163.383C83.1608 166.199 83.0919 168.38 81.1081 172.25C79.1226 176.121 78.4843 177.035 77.9887 178.443C77.4932 179.851 79.0504 180.203 80.9653 179.499C82.8786 178.795 87.0562 178.443 88.1195 178.655C89.1845 178.865 87.9078 178.513 83.9385 179.991C79.9726 181.468 78.9093 182.242 77.6343 181.188C76.3594 180.132 75.7211 179.711 75.2255 179.923C74.73 180.133 75.2977 181.119 74.0211 181.399C72.7462 181.68 72.2439 180.408 71.4712 179.923C70.6968 179.436 70.4449 179.147 70.2668 176.334C70.0888 173.518 70.0165 173.378 68.708 172.394C67.3961 171.408 67.4683 170.598 65.167 169.015C62.8623 167.432 62.5801 166.272 61.836 162.892L61.8377 162.891ZM83.1255 181.046C83.3405 181.046 84.3333 180.095 86.6346 180.447C88.9359 180.799 89.7136 179.815 90.4947 179.321C91.2758 178.829 90.9214 180.342 92.2652 180.165C93.6157 179.988 94.4623 179.92 95.4568 180.165C96.4462 180.41 94.3565 179.214 93.6157 177.491C92.8699 175.767 92.7271 175.874 92.6919 174.431C92.6566 172.988 92.1258 173.867 92.3357 172.671C92.5508 171.474 91.5059 169.996 91.5244 169.372C91.5395 168.747 92.5508 170.875 93.1168 172.599C93.6829 174.324 94.1785 175.378 94.9915 176.364C95.8062 177.35 96.3756 177.878 96.3756 177.878C96.3756 177.878 94.8134 175.098 93.8929 172.634C92.9724 170.171 93.2899 169.819 92.5827 168.236C91.8738 166.653 90.0664 162.889 89.2886 160.567C88.5075 158.244 86.5254 158.032 87.587 157.68C88.6503 157.328 90.3536 157.82 91.6252 159.44C92.9035 161.06 91.6974 161.201 93.3268 164.931C94.9562 168.658 94.5312 170.208 95.5912 172.671C96.6561 175.133 97.1533 175.273 97.79 176.893C98.4283 178.51 98.603 178.862 98.6769 176.963C98.7458 175.063 98.5341 172.495 97.6808 169.611C96.8325 166.725 97.6119 167.147 96.9753 164.544C96.337 161.94 95.9825 160.673 95.9825 160.673C95.9825 160.673 97.4691 162.751 97.8605 164.966C98.2469 167.183 98.2166 167.607 98.4955 168.168C98.7827 168.73 98.4619 167.217 98.4955 166.549C98.5324 165.88 98.6769 165.53 98.3897 164.826C98.1075 164.122 98.0016 164.017 98.0016 164.017C98.0016 164.017 100.659 165.248 100.481 167.852C100.306 170.455 100.375 174.713 100.624 176.261C100.874 177.809 101.153 178.935 99.7033 179.11C98.2469 179.287 97.9664 179.568 98.2469 179.99C98.5325 180.413 99.0313 179.99 100.337 180.871C101.65 181.75 102.925 182.734 100.835 182.172C98.7441 181.608 97.0811 182.067 94.3901 181.82C91.6957 181.573 91.6252 180.165 90.4578 180.904C89.2886 181.643 88.7209 181.678 87.409 181.466C86.0987 181.256 86.0282 181.328 85.6385 181.328C85.2488 181.328 85.0018 180.801 83.1221 181.046H83.1255ZM96.1304 153.988C96.1304 153.988 100.169 155.889 101.583 160.745C102.997 165.6 106.118 170.387 109.021 172.918C111.927 175.452 113.629 175.31 114.549 177.492C115.47 179.674 115.824 180.801 117.171 180.307C118.515 179.815 117.665 179.182 118.87 178.338C120.077 177.492 120.144 177.14 120.783 176.156C121.421 175.17 121.421 174.608 122.273 173.553C123.119 172.497 123.051 171.723 123.051 171.723C123.051 171.723 122.624 171.723 121.137 173.693C119.651 175.664 119.436 175.732 119.436 175.732C119.436 175.732 120.571 173.693 121.564 169.047C122.553 164.402 121.987 164.332 122.553 163.136C123.119 161.938 123.971 160.532 123.689 162.712C123.407 164.896 122.839 167.639 123.689 169.327C124.539 171.017 125.179 169.751 124.75 171.65C124.327 173.551 123.549 174.326 123.761 176.646C123.973 178.969 124.013 179.384 124.115 180.235C124.215 181.084 122.486 180.235 121.421 180.585C120.358 180.937 119.437 180.305 120.077 179.883C120.712 179.459 120.643 179.037 121.492 177.42C122.342 175.802 122.982 174.466 122.982 174.466C122.982 174.466 121.992 178.965 119.903 180.058C117.806 181.149 117.238 181.431 115.255 181.219C113.273 181.007 112.846 181.079 112.846 181.079C112.846 181.079 114.408 180.727 113.061 179.319C111.714 177.911 111.431 176.997 111.431 176.997C111.431 176.997 111.431 177.911 108.88 179.249C106.328 180.585 107.675 181.148 105.547 180.869C103.426 180.585 102.645 180.585 102.645 180.585C102.645 180.585 104.131 180.869 106.753 179.249C109.372 177.631 109.726 176.363 110.153 176.223C110.58 176.082 107.743 174.182 105.831 171.438C103.914 168.695 101.934 165.316 100.231 161.374C98.5324 157.435 98.8147 157.504 96.1236 153.985L96.1304 153.988ZM95.8448 144.217C95.8448 144.217 100.523 146.891 101.019 150.972C101.512 155.051 103.995 153.998 107.89 158.783C111.789 163.568 112.071 162.514 114.48 165.186C116.887 167.861 115.827 168.141 116.963 168.915C118.095 169.689 118.238 169.901 117.242 167.577C116.252 165.255 116.536 165.186 114.905 163.566C113.276 161.948 112.71 162.582 114.269 160.119C115.827 157.655 115.612 156.457 116.039 155.051C116.466 153.645 116.96 152.8 117.317 151.956C117.668 151.11 115.755 152.659 115.189 154.49C114.623 156.317 115.258 157.867 112.921 158.077C110.585 158.288 109.522 157.655 107.467 156.037C105.411 154.419 105.199 154.347 104.35 153.151C103.498 151.955 102.863 150.827 102.863 150.264C102.863 149.702 102.223 149.419 102.223 149.419C102.223 149.419 103.429 149.631 105.272 151.811C107.113 153.993 105.981 151.741 105.341 150.263C104.706 148.786 103.854 148.503 105.272 147.588C106.688 146.674 106.827 146.04 106.827 146.04C106.827 146.04 104.847 148.221 103.143 147.166C101.445 146.112 101.726 145.338 100.17 145.406C98.608 145.478 97.4087 144.422 95.8465 144.21L95.8448 144.217ZM103.57 157.305C104.491 157.629 105.272 160.607 108.668 163.905C112.071 167.205 111.86 167.849 114.057 170.667C116.252 173.483 115.967 172.597 117.03 174.529C118.093 176.459 117.808 172.195 115.401 169.539C112.994 166.883 113.842 167.205 111.929 165.113C110.019 163.019 109.664 162.215 108.457 161.249C107.252 160.283 104.704 157.225 103.568 157.305H103.57ZM102.366 144.357C102.366 144.357 107.536 145.411 111.574 142.105C115.612 138.798 114.337 138.304 116.395 137.18C118.448 136.053 118.732 135.419 119.792 134.787C120.855 134.153 121.067 134.647 121.139 135.211C121.211 135.773 122.063 135.211 122.983 136.265C123.904 137.321 123.264 137.25 123.904 139.784C124.539 142.318 125.814 140.84 124.964 142.81C124.114 144.781 124.892 146.399 125.103 148.227C125.318 150.058 125.957 149.777 125.034 153.154C124.114 156.531 124.114 156.673 124.114 156.673C124.114 156.673 126.311 155.758 126.45 153.364C126.59 150.974 126.665 149.073 127.371 148.863C128.08 148.65 128.649 147.313 128.649 147.313C128.649 147.313 128.575 148.863 128.009 149.32C127.443 149.777 127.482 149.777 127.549 150.058C127.621 150.34 128.189 151.324 128.08 152.273C127.974 153.224 127.62 154.949 127.62 154.949C127.62 154.949 129.109 153.471 129.39 151.499C129.677 149.529 130.03 149.916 130.205 148.72C130.383 147.523 130.03 146.292 130.49 147.135C130.95 147.98 131.197 149.035 131.197 149.035C131.197 149.035 132.687 147.664 132.756 145.269C132.8 143.806 132.625 135.995 129.145 134.081C127.895 133.394 127.48 133.097 126.135 132.71C124.787 132.325 124.398 132.498 123.444 132.218C122.725 132.006 121.688 132.468 120.991 132.845C121.178 132.498 121.597 131.537 123.353 131.637C125.105 131.736 129.198 133.134 129.659 132.922C130.119 132.712 125.92 130.599 123.795 130.635C121.293 130.676 119.735 131.469 118.236 133.589C117.316 134.892 116.637 134.081 114.794 136.721C112.953 139.36 112.884 140.414 109.342 142.033C105.797 143.653 104.702 144.145 103.353 143.97C102.01 143.793 101.301 144.287 102.364 144.355L102.366 144.357ZM114.269 152.837C114.269 152.837 114.337 150.797 115.967 148.403C117.596 146.01 117.242 147.276 118.307 144.814C119.37 142.351 119.725 141.858 120.079 141.858C120.433 141.858 120.079 142.492 119.793 144.46C119.515 146.432 118.518 147.91 117.175 149.319C115.827 150.725 115.046 151.991 114.872 153.258C114.69 154.524 114.306 154.067 114.269 152.835V152.837ZM180.457 5.08517C179.402 5.08851 178.226 5.3738 178.992 6.78357C180.267 9.12762 180.398 10.202 180.334 11.8487C180.269 13.4937 181.354 14.2545 181.354 14.2545C180.704 15.8394 182.881 16.8738 182.881 17.1675V20.9697C180.522 21.3817 179.825 21.8072 178.868 21.9807C178.621 22.0257 178.302 22.0091 177.714 21.8773C175.888 21.4718 175.253 21.5953 174.296 22.6514C173.244 23.8126 172.727 26.9207 172.616 28.8443C172.496 30.7663 173.53 31.3569 174.756 31.165C175.975 30.9715 176.778 29.8804 176.778 29.8804C176.854 30.5744 177.742 31.1884 178.458 31.1116C177.107 32.2862 177.202 34.0496 178.831 34.9656C178.213 37.0861 179.703 38.012 181.344 38.309C181.344 38.309 180.578 44.6621 182.881 49.2017C180.46 52.8554 178.01 58.1291 175.94 63.7131C173.106 63.6531 170.138 62.919 166.406 62.0531C163.463 61.3741 159.577 63.2927 160.128 66.7395C160.384 68.3178 161.459 69.1854 162.655 69.4823C160.775 74.5492 157.217 84.1339 154.466 91.5181C152.798 92.1671 150.957 92.8461 148.788 93.6185C146.027 94.6045 146.237 92.5091 144.767 94.1291C143.299 95.7474 143.299 94.8865 141.634 95.025C139.969 95.1668 138.728 95.025 138.338 95.8358C137.947 96.6433 136.316 96.046 133.306 95.9059C130.297 95.7657 130.615 98.2282 130.615 98.2282L127.638 98.0864C124.663 97.9463 121.263 99.2843 117.437 100.973C113.61 102.659 108.934 102.099 108.509 101.887C110.341 95.1201 108.136 93.5768 105.675 91.4714C103.889 89.9415 104.61 88.8671 104.61 88.8671C104.61 88.8671 107.165 87.1787 108.225 85.7005C109.251 84.2757 107.627 81.4729 106.535 80.3567C106.52 80.305 107.294 78.0611 107.371 77.8325C107.739 76.6246 107.988 75.677 108.013 75.5785C108.178 74.8995 108.346 74.1087 108.507 73.1744C109.5 67.4753 109.145 63.3227 109.182 62.5853C109.218 61.8462 110.103 61.9146 110.066 61.3541C110.032 60.7918 110.277 58.3627 110.032 56.1454C109.784 53.9298 109.463 54.1401 109.218 53.7897C108.969 53.4377 108.651 52.2765 108.542 51.4657C108.436 50.6565 110.565 49.3902 111.164 48.546C111.767 47.7018 111.235 46.7859 110.528 46.1886C109.819 45.5914 110.492 43.5143 110.138 40.4545C109.784 37.3914 104.47 31.7289 102.24 30.0389C100.007 28.3505 98.2889 28.8126 96.8896 29.0195C96.2681 29.1113 95.6382 28.1953 94.2927 27.9634C91.2775 27.4496 91.1549 29.2681 87.5013 28.5257C84.3853 27.8917 82.331 28.1036 79.2822 28.8777C76.2367 29.6518 68.7987 33.1687 65.7516 37.6032C62.7044 42.0344 59.869 47.3849 60.4367 49.8474C61.0045 52.3099 62.1384 53.788 62.3517 54.704C62.5633 55.6182 62.9883 56.8845 62.3517 58.0807C61.7151 59.2786 61.7839 60.263 62.2106 61.3891C62.6356 62.5152 62.6356 63.7098 62.6356 63.7098C62.6356 63.7098 57.7541 62.27 53.9562 67.0532C50.1061 71.8998 54.6751 75.6736 53.5681 81.7031C53.5681 81.7031 48.5355 85.1015 47.0489 89.4643C45.5606 93.8271 50.4135 95.5872 49.031 97.8378C46.4106 101.85 47.3664 102.941 47.8972 103.749C48.4297 104.56 49.5988 104.663 46.5517 105.719C43.5046 106.775 42.0885 108.253 41.8752 109.942C41.6635 111.63 41.593 111.91 41.593 111.91C41.593 111.91 40.4608 114.375 40.2475 116.555C40.0341 118.736 39.9636 120.918 40.5297 122.606C40.6708 123.027 40.7682 123.392 40.8337 123.701C40.0291 125.403 39.1573 127.508 38.1897 130.092C38.1897 130.092 37.8 131.012 37.1348 132.582C36.8913 132.503 36.6528 132.428 36.4142 132.358C34.7983 132.101 32.4987 135.987 33.9197 137.67C34.2574 138.069 34.4371 138.321 34.6219 138.521C29.8396 149.841 21.8085 168.945 20.5722 172.497C19.7491 174.858 18.0458 180.722 16.3644 187.532L14.2176 187.723L11.8458 187.414L6.3697 246.612L27.76 253.426C27.8507 253.678 27.9784 253.912 28.1531 254.127C29.4415 255.713 32.6851 257.894 34.2994 257.065C34.2994 257.065 34.6857 258.149 36.3487 258.466C38.0117 258.783 38.771 258.321 38.771 258.321C38.771 258.321 39.4899 259.484 40.7884 259.574C42.0835 259.664 42.878 259.302 42.878 259.302C44.0942 260.648 46.4811 261.196 47.3882 260.056C47.4638 259.963 47.5276 259.858 47.5814 259.739L51.4718 260.979C51.1744 267.741 50.778 278.363 50.558 284.423C50.2758 292.162 49.4241 294.414 44.3226 307.506C39.2211 320.591 40.4255 324.605 39.2211 330.655C38.0167 336.707 32.7019 342.76 29.0904 345.153C25.4755 347.543 26.1844 347.897 24.3433 347.123C22.5006 346.347 20.3035 344.871 18.6035 347.123C16.9036 349.372 16.1242 351.344 11.7315 356.411C7.33893 361.478 10.3155 364.15 9.74773 365.699C9.17997 367.247 7.48003 367.671 3.37129 367.108C-0.737449 366.546 -0.173043 369.219 0.394722 372.878C0.960807 376.54 0.891936 374.568 1.95356 382.521C3.01518 390.47 8.82553 391.877 10.3844 392.861C11.9432 393.847 10.811 395.818 11.9432 399.054C13.0787 402.292 17.0447 401.306 19.7374 401.59C22.4284 401.869 23.0667 402.993 24.4844 405.249C25.9022 407.498 26.6816 409.049 27.6743 409.47C28.6654 409.89 29.6565 413.06 31.2875 415.241C32.9152 417.423 32.0653 417.842 32.4919 419.814C32.9169 421.784 32.4214 422.204 36.174 426.429C39.9283 430.653 43.9682 429.312 44.6065 429.312C45.2448 429.312 47.5108 429.312 48.3608 429.947C49.2108 430.578 47.0153 433.462 47.0859 434.31C47.1581 435.154 48.5741 436.559 49.2813 436.773C49.9919 436.983 49.0697 439.235 52.1857 441.346C55.3033 443.456 59.4843 442.332 60.8315 441.978C62.1787 441.626 66.1446 444.092 69.1195 445.355C72.0944 446.623 72.6639 447.75 75.4976 447.465C78.3314 447.186 78.9697 448.031 83.6446 447.538C88.3211 447.045 92.5726 445.55 92.5726 445.55C92.5726 445.55 97.3196 449.365 99.4412 449.859C101.569 450.351 102.544 449.913 102.544 449.913C103.278 451.342 106.466 452.11 107.516 450.83C108.462 452.298 112.048 452.433 113.461 450.957C115.023 451.958 118.527 451.586 118.636 449.869C120.074 451.594 125.306 450.5 124.03 447.255C123.39 445.637 120.272 442.473 118.008 440.216C115.74 437.967 111.63 433.815 111.487 433.11C111.347 432.406 111.275 431.914 112.407 431.634C113.543 431.352 113.047 429.876 113.827 430.157C114.605 430.439 116.165 430.862 117.653 430.439C119.14 430.016 118.928 427.765 118.928 427.765C118.928 427.765 120.415 427.413 120.769 426.355C121.124 425.299 119.637 424.593 119.283 424.385C118.928 424.175 119.14 423.279 119.14 422.488C119.14 421.697 117.566 421.027 116.022 419.742C114.482 418.459 109.859 414.817 109.72 414.393C109.577 413.973 109.577 412.987 110.355 411.792C111.136 410.594 110.566 409.612 109.931 408.133C109.291 406.654 108.441 406.584 108.656 404.895C108.868 403.205 108.195 402.466 108.265 400.708C108.336 398.949 106.28 399.159 106.355 398.031C106.424 396.907 106.424 394.935 106.495 392.052C106.565 389.166 106.565 389.376 107.202 387.829C107.842 386.281 107.487 385.862 108.41 384.594C109.33 383.328 108.478 382.763 108.478 380.652C108.478 378.542 111.596 370.098 114.857 360.949C118.117 351.799 122.155 341.597 125.558 336.249C128.955 330.9 130.517 305.99 132.217 294.448C133.919 282.911 131.297 243.079 131.439 240.968C131.582 238.856 133.611 239.03 134.591 239.137C136.198 239.313 133.642 233.958 133.423 233.085C132.996 231.397 134.201 231.537 134.911 230.201C135.62 228.863 133.458 225.941 132.644 224.183C131.829 222.423 132.078 221.439 132.111 218.622C132.148 215.809 131.085 212.429 131.297 210.426C131.508 208.419 132.217 209.405 132.859 208.947C133.494 208.49 133.672 204.76 133.636 200.502C133.6 196.245 129.313 192.479 128.641 190.757C127.969 189.032 128.468 187.906 127.863 187.169C127.26 186.428 127.472 186.463 127.403 184.634C127.327 182.804 127.116 181.114 127.682 180.904C128.251 180.694 129.032 179.85 129.032 179.85L129.101 178.091C129.173 176.331 129.032 176.191 130.52 169.436C131.641 164.349 131.535 159.484 131.777 156.561C131.777 156.561 131.621 154.601 132.755 151.926C133.887 149.253 135.093 147.495 134.95 145.593C134.811 143.693 134.671 142.707 134.671 142.707C134.671 142.707 136.259 146.873 135.378 148.618C134.5 150.363 134.528 151.302 134.728 152.136C134.55 153.404 144.233 146.034 147.666 143.676C151.104 141.32 151.353 139.103 151.353 139.103C151.353 139.103 152.413 139.455 156.806 139.103C161.198 138.749 160.493 136.359 160.847 132.346C161.198 128.336 159.003 112.925 159.003 112.925C159.003 112.925 160.797 111.662 163.298 109.785C169.508 110.265 176.049 107.124 178.141 99.6247C182.748 96.5766 186.993 93.5585 187.625 92.097C188.9 89.1407 191.379 77.4604 192.938 68.453C192.988 68.1777 193.033 67.8974 193.08 67.6088C195.75 67.7356 198.637 67.3752 201.315 66.1573C202.559 65.5917 203.403 65.0245 204.206 65.1563C204.983 65.2831 205.257 66.1189 204.951 66.6094L204.728 65.9971C204.666 65.8053 204.488 65.6635 204.273 65.6635C204.058 65.6635 203.881 65.8036 203.823 65.9971L203.534 66.7696C203.042 66.4409 202.917 65.8186 202.917 65.8186C201.98 67.1016 202.126 68.126 202.786 68.7816C200.209 75.722 193.591 93.5568 191.335 99.5713H190.524C194.53 114.116 215.237 112.361 218 99.5713H217.216C215.492 94.9783 208.854 77.1101 206.016 69.4707C207.211 69.1737 208.294 68.3078 208.546 66.7279C209.097 63.281 205.208 61.3624 202.266 62.0414C198.961 62.8055 196.255 63.4695 193.71 63.6547C195.073 54.6689 196.467 42.8052 196.764 36.7841C197.12 29.6068 194.145 22.4278 192.229 21.0214C191.068 20.1672 188.52 20.2589 185.876 20.636V17.1558C185.876 16.8638 188.053 15.8294 187.406 14.2428C187.406 14.2428 188.49 13.482 188.422 11.837C188.357 10.1904 188.488 9.11427 189.765 6.77189C190.531 5.36045 189.353 5.07683 188.3 5.07349C188.278 4.98006 187.428 1.49819 184.384 0C181.342 1.49986 180.489 4.98006 180.467 5.07349L180.457 5.08517Z" fill="#EFF0EF"/>
</svg>
