<svg width="134" height="128" viewBox="0 0 134 128" fill="none" xmlns="http://www.w3.org/2000/svg">
<path d="M76.4375 51.4297V51.9015C76.4375 55.2043 79.0326 58.0353 82.5713 58.0353C84.2227 58.0353 85.6382 57.3276 86.8178 56.3839C87.9973 55.2044 88.4692 53.7889 88.4692 52.1374V51.4297H76.4375Z" fill="#EFF0EF"/>
<path d="M72.1903 74.5488H60.3945V77.6157H72.1903V74.5488Z" fill="#EFF0EF"/>
<path d="M54.4955 80.4473C53.7878 80.4473 53.0801 81.155 53.0801 81.8627C53.0801 82.5705 53.7878 83.2782 54.4955 83.2782H78.0871C78.7948 83.2782 79.5026 82.5705 79.5026 81.8627C79.5026 81.155 78.7948 80.4473 78.0871 80.4473H54.4955Z" fill="#EFF0EF"/>
<path d="M82.3327 41.0498L80.4453 48.3632H84.22L82.3327 41.0498Z" fill="#EFF0EF"/>
<path d="M19.1093 109.937C14.1551 109.937 10.1445 113.947 10.1445 118.901C10.1445 123.856 14.1551 127.866 19.1093 127.866C24.0635 127.866 28.0741 123.856 28.0741 118.901C28.0741 113.947 23.8276 109.937 19.1093 109.937Z" fill="#EFF0EF"/>
<path d="M46.7107 60.6299H44.3516V61.1017C44.3516 64.4046 46.9466 67.2355 50.4854 67.2355C52.1368 67.2355 53.5523 66.5278 54.7318 65.5841C55.9114 64.4045 56.3833 62.989 56.3833 61.3376V60.8658H46.7107V60.6299Z" fill="#EFF0EF"/>
<path d="M48.5977 57.7997H52.3723L50.485 50.4863L48.5977 57.7997Z" fill="#EFF0EF"/>
<path d="M67.9441 116.543L85.4018 104.039H50.4863L67.9441 116.543Z" fill="#EFF0EF"/>
<path d="M122.676 54.4962L120.789 22.8835C120.317 13.211 112.06 5.42578 102.387 5.42578H33.4999C23.8273 5.42578 15.5703 12.9751 15.0985 22.8835L13.2111 54.4962C11.5597 73.6054 20.0527 92.4786 35.6231 103.803L67.9436 127.158L100.264 103.803C115.834 92.4786 124.327 73.6054 122.676 54.4962ZM96.9611 99.3202L68.8872 119.609C68.4154 120.081 67.7077 120.081 67.2358 119.609L39.1618 99.3202C25.0069 89.1758 17.4576 72.1899 19.109 54.968L20.7604 23.1194C21.2323 16.2779 26.8942 11.0877 33.4999 11.0877H102.387C109.229 11.0877 114.891 16.2779 115.127 23.1194L117.014 54.7321C118.665 72.1899 111.116 88.9399 96.9611 99.3202Z" fill="#EFF0EF"/>
<path d="M128.103 96.4893C124.8 96.4893 122.205 99.0843 122.205 102.387C122.205 105.69 124.8 108.285 128.103 108.285C131.406 108.285 134.001 105.69 134.001 102.387C134.001 99.0843 131.406 96.4893 128.103 96.4893Z" fill="#EFF0EF"/>
<path d="M112.295 23.356C112.059 18.1659 107.577 14.1553 102.387 14.1553H33.4995C28.3094 14.1553 24.0629 18.1659 23.5911 23.356L21.7037 54.9687C20.2882 71.2468 27.3657 87.2891 40.577 96.7257L46.2389 100.972H89.4115L95.0735 96.9616C108.285 87.2891 115.598 71.4828 113.947 55.2046C114.183 54.9687 114.183 56.6201 112.295 23.356ZM91.7707 51.4299H91.2988C91.2988 51.6659 91.5347 55.2046 88.7037 58.2715C87.0523 59.9229 84.6932 60.8666 82.334 60.8666C77.3798 60.8666 73.3692 56.856 73.3692 51.9018V51.4299H72.8974C72.1897 51.4299 71.4819 50.7222 71.4819 50.0144C71.4819 49.3067 72.1897 48.599 72.8974 48.599H77.3798L80.2108 37.275L67.4713 41.0497V71.7187H73.3692C74.077 71.7187 74.7847 72.4264 74.7847 73.1342V77.3806H77.8517C80.2108 77.3806 82.334 79.268 82.334 81.863C82.334 84.4581 80.4467 86.3454 77.8517 86.3454H54.2601C51.9009 86.3454 49.7777 84.4581 49.7777 81.863C49.7777 79.268 51.665 77.3806 54.2601 77.3806H57.327V72.8983C57.327 72.1905 58.0347 71.4828 58.7425 71.4828H64.6404V41.7574L52.1368 45.2961L55.2038 57.5638H59.9221C60.6298 57.5638 61.3376 58.2715 61.3376 58.9792C61.3376 59.687 60.6298 60.3947 59.9221 60.3947H59.4502V60.8666C59.4502 63.2257 58.5065 65.5849 56.8551 67.2363C55.2037 68.8877 52.8446 69.8314 50.4854 69.8314C45.5312 69.8314 41.5206 65.8208 41.5206 60.8666V60.3947H41.0488C40.3411 60.3947 39.6333 59.687 39.6333 58.9792C39.6333 58.2715 40.3411 57.5638 41.0488 57.5638H45.5312L49.0699 43.8806C49.3059 43.4088 49.5418 42.937 50.0136 42.937L64.6404 38.6905V33.2644C64.6404 32.5567 65.3481 31.8489 66.0559 31.8489C66.7636 31.8489 67.4713 32.5567 67.4713 33.2644V37.9828L81.8622 33.7363C82.5699 33.5004 83.5136 33.9722 83.7495 34.6799L87.2883 48.363H91.7707C92.4784 48.363 93.1862 49.0708 93.1862 49.7785C93.1862 50.4863 92.4784 51.4299 91.7707 51.4299ZM104.51 24.2996H30.9044C30.1967 24.2996 29.489 23.5919 29.489 22.8841C29.489 22.1764 30.1967 21.4687 30.9044 21.4687H104.51C105.218 21.4687 105.926 22.1764 105.926 22.8841C105.926 23.5919 105.218 24.2996 104.51 24.2996Z" fill="#EFF0EF"/>
<path d="M124.328 2.35938C125.508 2.35938 126.452 3.30306 126.452 4.48264C126.452 5.66221 125.508 6.60586 124.328 6.60586C123.149 6.60586 122.205 5.66221 122.205 4.48264C122.205 3.30306 123.149 2.35938 124.328 2.35938Z" fill="#EFF0EF"/>
<path d="M4.95526 0C6.13483 0 7.07855 0.943684 7.07855 2.12326C7.07855 3.30284 6.13483 4.24649 4.95526 4.24649C3.77568 4.24649 2.83203 3.30284 2.83203 2.12326C2.83203 0.943684 3.77568 0 4.95526 0Z" fill="#EFF0EF"/>
<path d="M2.12323 47.8906C3.3028 47.8906 4.24645 48.8343 4.24645 50.0139C4.24645 51.1934 3.3028 52.1371 2.12323 52.1371C0.943648 52.1371 0 51.1934 0 50.0139C0 48.8343 0.943648 47.8906 2.12323 47.8906Z" fill="#EFF0EF"/>
<path d="M131.877 79.0312C133.057 79.0312 134 79.9749 134 81.1545C134 82.3341 133.057 83.2777 131.877 83.2777C130.698 83.2777 129.754 82.3341 129.754 81.1545C129.754 79.9749 130.698 79.0312 131.877 79.0312Z" fill="#EFF0EF"/>
<path d="M106.633 115.835C107.813 115.835 108.756 116.779 108.756 117.958C108.756 119.138 107.813 120.081 106.633 120.081C105.453 120.081 104.51 119.138 104.51 117.958C104.51 116.779 105.453 115.835 106.633 115.835Z" fill="#EFF0EF"/>
<path d="M47.6545 121.732C48.8341 121.732 49.7777 122.676 49.7777 123.856C49.7777 125.035 48.8341 125.979 47.6545 125.979C46.4749 125.979 45.5312 125.035 45.5312 123.856C45.5312 122.676 46.4749 121.732 47.6545 121.732Z" fill="#EFF0EF"/>
<path d="M8.02166 89.1758C9.20124 89.1758 10.1449 90.1194 10.1449 91.299C10.1449 92.4786 9.20124 93.4223 8.02166 93.4223C6.84209 93.4223 5.89844 92.4786 5.89844 91.299C5.89844 90.1194 6.84209 89.1758 8.02166 89.1758Z" fill="#EFF0EF"/>
</svg>
